<svg width="70" height="19" fill="none" xmlns="http://www.w3.org/2000/svg" id="vector"><g clip-path="url('#clip0_2_22')"><path fill-rule="evenodd" clip-rule="evenodd" d="M8.373 3c.065 0 .117.052.117.117v.122a.117.117 0 0 1-.117.117h-.134v.395a7.625 7.625 0 0 1 7.386 7.622 7.626 7.626 0 1 1-15.25 0 7.626 7.626 0 0 1 7.386-7.622v-.395h-.134a.117.117 0 0 1-.117-.117v-.122c0-.065.052-.117.117-.117h.746ZM8.19 4.75v.67a.191.191 0 1 1-.382 0v-.67a6.624 6.624 0 0 0-6.43 6.432h.669a.191.191 0 1 1 0 .382h-.67a6.625 6.625 0 0 0 6.43 6.432v-.67a.191.191 0 1 1 .383 0v.67a6.624 6.624 0 0 0 6.43-6.432h-.669a.191.191 0 0 1 0-.382h.67a6.623 6.623 0 0 0-6.43-6.431ZM8 11.018a.356.356 0 0 1 .35.415l2.266 2.05c.058.053.1.12.121.196l.03.111a.077.077 0 0 1-.086.096l-.114-.019a.412.412 0 0 1-.207-.1l-2.266-2.05A.356.356 0 1 1 8 11.017Z" fill="#fff"/></g><path d="M22.456 4.32v-.996h2.256V12h-1.104V4.32h-1.152ZM30.848.696 27.56 14.04h-1.08L29.756.696h1.092Zm1.315 10.428A56.82 56.82 0 0 0 34.55 9.12a9.777 9.777 0 0 0 1.452-1.644c.4-.576.6-1.14.6-1.692 0-.52-.128-.928-.384-1.224-.248-.304-.652-.456-1.212-.456-.544 0-.968.172-1.272.516-.296.336-.456.788-.48 1.356h-1.056c.032-.896.304-1.588.816-2.076s1.172-.732 1.98-.732c.824 0 1.476.228 1.956.684.488.456.732 1.084.732 1.884 0 .664-.2 1.312-.6 1.944a8.564 8.564 0 0 1-1.344 1.656 35.235 35.235 0 0 1-1.932 1.656h4.128v.912h-5.772v-.78Zm7.034-3.552c0-1.376.224-2.448.672-3.216.448-.776 1.232-1.164 2.352-1.164 1.112 0 1.892.388 2.34 1.164.448.768.672 1.84.672 3.216 0 1.4-.224 2.488-.672 3.264-.448.776-1.228 1.164-2.34 1.164-1.12 0-1.904-.388-2.352-1.164-.448-.776-.672-1.864-.672-3.264Zm4.956 0c0-.696-.048-1.284-.144-1.764-.088-.488-.276-.88-.564-1.176-.28-.296-.688-.444-1.224-.444-.544 0-.96.148-1.248.444-.28.296-.468.688-.564 1.176-.088.48-.132 1.068-.132 1.764 0 .72.044 1.324.132 1.812.096.488.284.88.564 1.176.288.296.704.444 1.248.444.536 0 .944-.148 1.224-.444.288-.296.476-.688.564-1.176.096-.488.144-1.092.144-1.812Zm2.58 0c0-1.376.223-2.448.671-3.216.448-.776 1.232-1.164 2.352-1.164 1.112 0 1.892.388 2.34 1.164.448.768.672 1.84.672 3.216 0 1.4-.224 2.488-.672 3.264-.448.776-1.228 1.164-2.34 1.164-1.12 0-1.904-.388-2.352-1.164-.448-.776-.672-1.864-.672-3.264Zm4.955 0c0-.696-.048-1.284-.144-1.764-.088-.488-.276-.88-.564-1.176-.28-.296-.688-.444-1.224-.444-.544 0-.96.148-1.248.444-.28.296-.468.688-.564 1.176-.088.48-.132 1.068-.132 1.764 0 .72.044 1.324.132 1.812.096.488.284.88.564 1.176.288.296.704.444 1.248.444.536 0 .944-.148 1.224-.444.288-.296.476-.688.564-1.176.096-.488.144-1.092.144-1.812Zm2.58 0c0-1.376.223-2.448.671-3.216.448-.776 1.232-1.164 2.352-1.164 1.112 0 1.892.388 2.34 1.164.448.768.672 1.84.672 3.216 0 1.4-.224 2.488-.672 3.264-.448.776-1.228 1.164-2.34 1.164-1.12 0-1.904-.388-2.352-1.164-.448-.776-.672-1.864-.672-3.264Zm4.955 0c0-.696-.048-1.284-.144-1.764-.088-.488-.276-.88-.564-1.176-.28-.296-.688-.444-1.224-.444-.544 0-.96.148-1.248.444-.28.296-.468.688-.564 1.176-.088.48-.132 1.068-.132 1.764 0 .72.044 1.324.132 1.812.096.488.284.88.564 1.176.288.296.704.444 1.248.444.536 0 .944-.148 1.224-.444.288-.296.476-.688.564-1.176.096-.488.144-1.092.144-1.812Zm5.088 4.536c-.504 0-.956-.084-1.356-.252a2.356 2.356 0 0 1-.948-.72 1.946 1.946 0 0 1-.384-1.068h1.128c.032.328.184.596.456.804.28.208.644.312 1.092.312.416 0 .744-.092.984-.276.24-.184.36-.416.36-.696 0-.288-.128-.5-.384-.636-.256-.144-.652-.284-1.188-.42a9.777 9.777 0 0 1-1.2-.384 2.279 2.279 0 0 1-.792-.588c-.216-.264-.324-.608-.324-1.032 0-.336.1-.644.3-.924.2-.28.484-.5.852-.66a3.003 3.003 0 0 1 1.26-.252c.728 0 1.316.184 1.764.552.448.368.688.872.72 1.512h-1.092a1.12 1.12 0 0 0-.42-.828c-.248-.208-.584-.312-1.008-.312-.392 0-.704.084-.936.252a.779.779 0 0 0-.348.66c0 .216.068.396.204.54.144.136.32.248.528.336.216.08.512.172.888.276.472.128.856.256 1.152.384.296.12.548.304.756.552.216.248.328.572.336.972 0 .36-.1.684-.3.972-.2.288-.484.516-.852.684-.36.16-.776.24-1.248.24Z" fill="#fff"/><defs><clipPath id="clip0_2_22"><path fill="#fff" transform="translate(0 3)" d="M0 0h16v16H0z"/></clipPath></defs></svg>