<svg width="70" height="19" viewBox="0 0 70 19" fill="none" xmlns="http://www.w3.org/2000/svg" id="vector">
<g clip-path="url('#clip0_2_22')">
<path fill-rule="evenodd" clip-rule="evenodd" d="M8.37292 3C8.43752 3 8.48989 3.05238 8.48989 3.11691V3.23936C8.48989 3.3039 8.43752 3.35628 8.37292 3.35628H8.23866V3.7507C12.3393 3.87669 15.625 7.24071 15.625 11.373C15.625 15.5856 12.2114 19 8.00042 19C3.78941 19 0.375 15.5856 0.375 11.373C0.375 7.24102 3.66099 3.87708 7.76134 3.75078V3.35628H7.62708C7.56248 3.35628 7.51019 3.3039 7.51019 3.23936V3.11691C7.51019 3.05238 7.56248 3 7.62708 3H8.37292ZM8.19106 4.75062V5.41987C8.19106 5.5254 8.10554 5.61093 8.00004 5.61093C7.89453 5.61093 7.80894 5.5254 7.80894 5.41987V4.75062C4.30164 4.85038 1.47812 7.67406 1.37877 11.1822H2.04787C2.15338 11.1822 2.23897 11.2677 2.23897 11.3733C2.23897 11.4789 2.15338 11.5644 2.04787 11.5644H1.37877C1.47858 15.0723 4.30187 17.8962 7.80894 17.996V17.3268C7.80894 17.2212 7.89453 17.1356 8.00004 17.1356C8.10554 17.1356 8.19106 17.2212 8.19106 17.3268V17.996C11.6984 17.8966 14.5214 15.0725 14.6212 11.5644H13.9521C13.8466 11.5644 13.7611 11.4789 13.7611 11.3733C13.7611 11.2677 13.8466 11.1822 13.9521 11.1822H14.6212C14.5219 7.67375 11.6987 4.84999 8.19106 4.75062ZM7.99999 11.017C8.1967 11.017 8.35619 11.1765 8.35619 11.3733C8.35619 11.3936 8.3535 11.4131 8.35027 11.4324L10.6161 13.4819C10.6742 13.5345 10.7162 13.6026 10.7371 13.6782L10.7677 13.7894C10.7827 13.8435 10.7363 13.8948 10.681 13.8854L10.5672 13.866C10.4899 13.8529 10.418 13.8179 10.3598 13.7653L8.09358 11.7155C8.06359 11.7238 8.0326 11.7296 7.99999 11.7296C7.80336 11.7296 7.64379 11.5701 7.64379 11.3733C7.64379 11.1765 7.80336 11.017 7.99999 11.017Z" fill="white"></path>
</g>
<path d="M22.456 4.32V3.324H24.712V12H23.608V4.32H22.456ZM30.8478 0.696L27.5598 14.04H26.4798L29.7558 0.696H30.8478ZM32.1628 11.124C33.1788 10.308 33.9748 9.64 34.5508 9.12C35.1268 8.592 35.6108 8.044 36.0028 7.476C36.4028 6.9 36.6028 6.336 36.6028 5.784C36.6028 5.264 36.4748 4.856 36.2188 4.56C35.9708 4.256 35.5668 4.104 35.0068 4.104C34.4628 4.104 34.0388 4.276 33.7348 4.62C33.4388 4.956 33.2788 5.408 33.2548 5.976H32.1988C32.2308 5.08 32.5028 4.388 33.0148 3.9C33.5268 3.412 34.1868 3.168 34.9948 3.168C35.8188 3.168 36.4708 3.396 36.9508 3.852C37.4388 4.308 37.6828 4.936 37.6828 5.736C37.6828 6.4 37.4828 7.048 37.0828 7.68C36.6908 8.304 36.2428 8.856 35.7388 9.336C35.2348 9.808 34.5908 10.36 33.8068 10.992H37.9348V11.904H32.1628V11.124ZM39.1971 7.572C39.1971 6.196 39.4211 5.124 39.8691 4.356C40.3171 3.58 41.1011 3.192 42.2211 3.192C43.3331 3.192 44.1131 3.58 44.5611 4.356C45.0091 5.124 45.2331 6.196 45.2331 7.572C45.2331 8.972 45.0091 10.06 44.5611 10.836C44.1131 11.612 43.3331 12 42.2211 12C41.1011 12 40.3171 11.612 39.8691 10.836C39.4211 10.06 39.1971 8.972 39.1971 7.572ZM44.1531 7.572C44.1531 6.876 44.1051 6.288 44.0091 5.808C43.9211 5.32 43.7331 4.928 43.4451 4.632C43.1651 4.336 42.7571 4.188 42.2211 4.188C41.6771 4.188 41.2611 4.336 40.9731 4.632C40.6931 4.928 40.5051 5.32 40.4091 5.808C40.3211 6.288 40.2771 6.876 40.2771 7.572C40.2771 8.292 40.3211 8.896 40.4091 9.384C40.5051 9.872 40.6931 10.264 40.9731 10.56C41.2611 10.856 41.6771 11.004 42.2211 11.004C42.7571 11.004 43.1651 10.856 43.4451 10.56C43.7331 10.264 43.9211 9.872 44.0091 9.384C44.1051 8.896 44.1531 8.292 44.1531 7.572ZM46.7323 7.572C46.7323 6.196 46.9563 5.124 47.4043 4.356C47.8523 3.58 48.6363 3.192 49.7563 3.192C50.8683 3.192 51.6483 3.58 52.0963 4.356C52.5443 5.124 52.7683 6.196 52.7683 7.572C52.7683 8.972 52.5443 10.06 52.0963 10.836C51.6483 11.612 50.8683 12 49.7563 12C48.6363 12 47.8523 11.612 47.4043 10.836C46.9563 10.06 46.7323 8.972 46.7323 7.572ZM51.6883 7.572C51.6883 6.876 51.6403 6.288 51.5443 5.808C51.4563 5.32 51.2683 4.928 50.9803 4.632C50.7003 4.336 50.2923 4.188 49.7563 4.188C49.2123 4.188 48.7963 4.336 48.5083 4.632C48.2283 4.928 48.0403 5.32 47.9443 5.808C47.8563 6.288 47.8123 6.876 47.8123 7.572C47.8123 8.292 47.8563 8.896 47.9443 9.384C48.0403 9.872 48.2283 10.264 48.5083 10.56C48.7963 10.856 49.2123 11.004 49.7563 11.004C50.2923 11.004 50.7003 10.856 50.9803 10.56C51.2683 10.264 51.4563 9.872 51.5443 9.384C51.6403 8.896 51.6883 8.292 51.6883 7.572ZM54.2674 7.572C54.2674 6.196 54.4914 5.124 54.9394 4.356C55.3874 3.58 56.1714 3.192 57.2914 3.192C58.4034 3.192 59.1834 3.58 59.6314 4.356C60.0794 5.124 60.3034 6.196 60.3034 7.572C60.3034 8.972 60.0794 10.06 59.6314 10.836C59.1834 11.612 58.4034 12 57.2914 12C56.1714 12 55.3874 11.612 54.9394 10.836C54.4914 10.06 54.2674 8.972 54.2674 7.572ZM59.2234 7.572C59.2234 6.876 59.1754 6.288 59.0794 5.808C58.9914 5.32 58.8034 4.928 58.5154 4.632C58.2354 4.336 57.8274 4.188 57.2914 4.188C56.7474 4.188 56.3314 4.336 56.0434 4.632C55.7634 4.928 55.5754 5.32 55.4794 5.808C55.3914 6.288 55.3474 6.876 55.3474 7.572C55.3474 8.292 55.3914 8.896 55.4794 9.384C55.5754 9.872 55.7634 10.264 56.0434 10.56C56.3314 10.856 56.7474 11.004 57.2914 11.004C57.8274 11.004 58.2354 10.856 58.5154 10.56C58.8034 10.264 58.9914 9.872 59.0794 9.384C59.1754 8.896 59.2234 8.292 59.2234 7.572ZM64.3106 12.108C63.8066 12.108 63.3546 12.024 62.9546 11.856C62.5546 11.68 62.2386 11.44 62.0066 11.136C61.7746 10.824 61.6466 10.468 61.6226 10.068H62.7506C62.7826 10.396 62.9346 10.664 63.2066 10.872C63.4866 11.08 63.8506 11.184 64.2986 11.184C64.7146 11.184 65.0426 11.092 65.2826 10.908C65.5226 10.724 65.6426 10.492 65.6426 10.212C65.6426 9.924 65.5146 9.712 65.2586 9.576C65.0026 9.432 64.6066 9.292 64.0706 9.156C63.5826 9.028 63.1826 8.9 62.8706 8.772C62.5666 8.636 62.3026 8.44 62.0786 8.184C61.8626 7.92 61.7546 7.576 61.7546 7.152C61.7546 6.816 61.8546 6.508 62.0546 6.228C62.2546 5.948 62.5386 5.728 62.9066 5.568C63.2746 5.4 63.6946 5.316 64.1666 5.316C64.8946 5.316 65.4826 5.5 65.9306 5.868C66.3786 6.236 66.6186 6.74 66.6506 7.38H65.5586C65.5346 7.036 65.3946 6.76 65.1386 6.552C64.8906 6.344 64.5546 6.24 64.1306 6.24C63.7386 6.24 63.4266 6.324 63.1946 6.492C62.9626 6.66 62.8466 6.88 62.8466 7.152C62.8466 7.368 62.9146 7.548 63.0506 7.692C63.1946 7.828 63.3706 7.94 63.5786 8.028C63.7946 8.108 64.0906 8.2 64.4666 8.304C64.9386 8.432 65.3226 8.56 65.6186 8.688C65.9146 8.808 66.1666 8.992 66.3746 9.24C66.5906 9.488 66.7026 9.812 66.7106 10.212C66.7106 10.572 66.6106 10.896 66.4106 11.184C66.2106 11.472 65.9266 11.7 65.5586 11.868C65.1986 12.028 64.7826 12.108 64.3106 12.108Z" fill="white"></path>
<defs>
<clipPath id="clip0_2_22">
<rect width="16" height="16" fill="white" transform="translate(0 3)"></rect>
</clipPath>
</defs>
</svg>
