<svg width="30" height="17" fill="none" xmlns="http://www.w3.org/2000/svg" id="vector"><g clip-path="url('#clip0_2_197')"><path fill-rule="evenodd" clip-rule="evenodd" d="M8.373 1c.065 0 .117.052.117.117v.122a.117.117 0 0 1-.117.117h-.134v.395a7.625 7.625 0 0 1 7.386 7.622 7.626 7.626 0 1 1-15.25 0 7.626 7.626 0 0 1 7.386-7.622v-.395h-.134a.117.117 0 0 1-.117-.117v-.122c0-.065.052-.117.117-.117h.746ZM8.19 2.75v.67a.191.191 0 1 1-.382 0v-.67a6.624 6.624 0 0 0-6.43 6.432h.669a.191.191 0 0 1 0 .382h-.67a6.625 6.625 0 0 0 6.43 6.432v-.67a.191.191 0 1 1 .383 0v.67a6.624 6.624 0 0 0 6.43-6.432h-.669a.191.191 0 0 1 0-.382h.67a6.623 6.623 0 0 0-6.43-6.431ZM8 9.018a.356.356 0 0 1 .35.415l2.266 2.05c.058.053.1.12.121.196l.03.111a.077.077 0 0 1-.086.096l-.114-.019a.412.412 0 0 1-.207-.1l-2.266-2.05A.356.356 0 1 1 8 9.018Z" fill="#fff"/></g><path d="M22.456 2.32v-.996h2.256V10h-1.104V2.32h-1.152ZM27.32.448l-.144 2.388h-.756L26.264.448h1.056Zm1.91 0-.144 2.388h-.756L28.174.448h1.056Z" fill="#fff"/><defs><clipPath id="clip0_2_197"><path fill="#fff" transform="translate(0 1)" d="M0 0h16v16H0z"/></clipPath></defs></svg>