<svg width="30" height="17" viewBox="0 0 30 17" fill="none" xmlns="http://www.w3.org/2000/svg" id="vector">
<g clip-path="url('#clip0_2_197')">
<path fill-rule="evenodd" clip-rule="evenodd" d="M8.37292 1C8.43752 1 8.48989 1.05238 8.48989 1.11691V1.23936C8.48989 1.3039 8.43752 1.35628 8.37292 1.35628H8.23866V1.7507C12.3393 1.87669 15.625 5.24071 15.625 9.37297C15.625 13.5856 12.2114 17 8.00042 17C3.78941 17 0.375 13.5856 0.375 9.37297C0.375 5.24102 3.66099 1.87708 7.76134 1.75078V1.35628H7.62708C7.56248 1.35628 7.51019 1.3039 7.51019 1.23936V1.11691C7.51019 1.05238 7.56248 1 7.62708 1H8.37292ZM8.19106 2.75062V3.41987C8.19106 3.5254 8.10554 3.61093 8.00004 3.61093C7.89453 3.61093 7.80894 3.5254 7.80894 3.41987V2.75062C4.30164 2.85038 1.47812 5.67406 1.37877 9.18221H2.04787C2.15338 9.18221 2.23897 9.26775 2.23897 9.37328C2.23897 9.47888 2.15338 9.56441 2.04787 9.56441H1.37877C1.47858 13.0723 4.30187 15.8962 7.80894 15.996V15.3268C7.80894 15.2212 7.89453 15.1356 8.00004 15.1356C8.10554 15.1356 8.19106 15.2212 8.19106 15.3268V15.996C11.6984 15.8966 14.5214 13.0725 14.6212 9.56441H13.9521C13.8466 9.56441 13.7611 9.47888 13.7611 9.37328C13.7611 9.26775 13.8466 9.18221 13.9521 9.18221H14.6212C14.5219 5.67375 11.6987 2.84999 8.19106 2.75062ZM7.99999 9.01702C8.1967 9.01702 8.35619 9.17655 8.35619 9.3733C8.35619 9.3936 8.3535 9.41314 8.35027 9.43245L10.6161 11.4819C10.6742 11.5345 10.7162 11.6026 10.7371 11.6782L10.7677 11.7894C10.7827 11.8435 10.7363 11.8948 10.681 11.8854L10.5672 11.866C10.4899 11.8529 10.418 11.8179 10.3598 11.7653L8.09358 9.7155C8.06359 9.72381 8.0326 9.72958 7.99999 9.72958C7.80336 9.72958 7.64379 9.57005 7.64379 9.3733C7.64379 9.17655 7.80336 9.01702 7.99999 9.01702Z" fill="white"></path>
</g>
<path d="M22.456 2.32V1.324H24.712V10H23.608V2.32H22.456ZM27.3198 0.447999L27.1758 2.836H26.4198L26.2638 0.447999H27.3198ZM29.2299 0.447999L29.0859 2.836H28.3299L28.1739 0.447999H29.2299Z" fill="white"></path>
<defs>
<clipPath id="clip0_2_197">
<rect width="16" height="16" fill="white" transform="translate(0 1)"></rect>
</clipPath>
</defs>
</svg>
