<svg width="128" height="30" fill="none" xmlns="http://www.w3.org/2000/svg"><path fill-rule="evenodd" clip-rule="evenodd" d="M95.589 12.682c.144 0 .144.018.287.018.106 0 .195.011.268.045.086.04.159.1.198.188a.676.676 0 0 1 .053.276.728.728 0 0 1-.096.314 1.919 1.919 0 0 1-.18.274 2.116 2.116 0 0 0-.17.261.64.64 0 0 0-.096.293c0 .058.026.146.074.27.028.074.064.16.111.26.037.076.061.17.108.262.04.078.086.161.134.25.042.078.095.157.143.243l.14.247c.045.079.097.158.146.242.046.08.083.167.133.25.047.08.1.158.15.24.048.08.106.154.157.237.047.078.095.16.146.242.047.08.103.156.153.238.05.078.099.158.15.24.05.078.096.16.147.241l.15.24c.05.08.086.168.137.249.05.079.112.151.163.231.05.08.109.154.16.234.05.079.096.162.147.242.051.078.1.159.153.238l.15.24c.046-.09.1-.17.142-.257.045-.088.069-.186.112-.272.044-.088.106-.167.148-.253.044-.089.072-.184.114-.27.044-.09.09-.175.133-.262.044-.089.084-.178.126-.264l.128-.263c.043-.09.09-.176.13-.262.044-.09.098-.172.14-.258.042-.09.076-.183.117-.268.042-.091.079-.183.119-.268.043-.092.08-.182.119-.267.043-.093.092-.177.13-.262.042-.094.089-.18.127-.265.042-.095.08-.185.115-.268.043-.1.074-.192.107-.274.041-.105.071-.199.097-.277.046-.135.071-.23.071-.284 0-.072-.025-.153-.047-.251a2.767 2.767 0 0 0-.062-.248 5.756 5.756 0 0 0-.087-.24 3.69 3.69 0 0 1-.085-.242c-.028-.09-.029-.178-.045-.253-.021-.097-.051-.179-.051-.25 0-.104.034-.188.063-.26a.348.348 0 0 1 .169-.192.537.537 0 0 1 .255-.062c.139 0 .139-.012.278-.012.138 0 .138.015.277.015.138 0 .138.002.277.002h.139l.139.002c.139 0 .139-.019.278-.019s.139.017.277.017l.278.002c.035 0 .061-.001.082-.003l.113-.012.082-.003c.139 0 .139.009.278.009.138 0 .138.012.277.012s.139-.016.277-.016c.139 0 .139.003.278.003s.139.006.277.006c.12 0 .223.01.311.032.119.031.218.073.278.146a.466.466 0 0 1 .094.304.7.7 0 0 1-.066.265.637.637 0 0 1-.15.222c-.06.06-.122.13-.208.177-.087.047-.178.076-.256.119-.087.048-.161.108-.238.15-.089.05-.178.084-.252.127-.091.054-.17.104-.24.148-.101.063-.181.112-.235.155-.068.053-.13.125-.198.201-.059.066-.125.133-.184.215-.053.072-.094.158-.147.243-.048.076-.101.153-.15.24-.044.078-.091.16-.136.248l-.138.254-.135.256c-.044.085-.071.18-.115.267-.043.085-.088.17-.134.258-.042.085-.096.166-.14.253-.042.086-.073.178-.116.266-.042.085-.102.164-.146.252-.041.085-.07.179-.113.267l-.127.26c-.042.086-.096.167-.138.255l-.118.266c-.041.086-.076.176-.119.265-.04.086-.1.164-.142.253-.041.086-.074.178-.115.266l-.123.263c-.041.087-.073.178-.114.267-.041.087-.087.172-.127.26-.041.088-.089.172-.13.26-.04.088-.077.177-.118.266-.04.087-.085.172-.126.261-.04.087-.072.179-.113.267-.04.09-.087.174-.126.261-.04.09-.071.181-.11.269-.04.088-.094.17-.134.256-.04.09-.076.18-.115.266-.041.09-.073.18-.112.267l-.122.263c-.04.09-.076.18-.115.266-.04.09-.083.175-.123.262-.04.09-.089.173-.128.26-.04.088-.073.18-.112.266-.042.09-.097.17-.137.256-.042.09-.068.183-.108.27-.041.089-.076.179-.116.265-.041.09-.1.169-.139.254-.042.09-.067.184-.108.269-.041.09-.084.177-.123.261-.044.09-.092.173-.133.258l-.125.26c-.044.091-.078.182-.117.265-.045.092-.101.172-.141.253-.047.094-.078.185-.118.264-.042.087-.08.176-.126.261-.045.086-.11.16-.157.243-.049.083-.095.168-.146.25-.052.08-.094.168-.148.247-.055.08-.11.16-.167.237-.057.078-.112.157-.172.232-.06.075-.12.15-.184.223-.062.072-.133.139-.199.21-.064.07-.136.135-.203.203-.068.07-.137.133-.204.197-.07.067-.14.131-.209.191-.073.064-.14.131-.212.188-.076.06-.155.111-.231.162-.081.055-.155.115-.234.16a3.063 3.063 0 0 1-.519.224 1.991 1.991 0 0 1-.276.058c-.094.015-.187.031-.28.031a2.47 2.47 0 0 1-.28-.019 2.624 2.624 0 0 1-.277-.046c-.091-.02-.177-.057-.267-.087-.088-.03-.177-.058-.263-.097-.084-.038-.165-.085-.248-.132-.08-.045-.164-.086-.243-.14-.08-.054-.16-.1-.227-.157a2.36 2.36 0 0 1-.2-.19c-.067-.068-.112-.15-.163-.222a1.512 1.512 0 0 1-.138-.238c-.037-.085-.078-.169-.097-.259-.02-.09-.016-.183-.016-.277 0-.09.01-.176.023-.263.014-.088.022-.177.048-.261a1.84 1.84 0 0 1 .099-.247c.037-.078.076-.159.126-.234.047-.072.115-.131.173-.2.071-.086.138-.167.214-.232.083-.072.17-.13.26-.177.094-.051.192-.086.293-.111.1-.025.202-.054.31-.054.102 0 .201.01.295.024.102.014.194.05.284.08.096.032.185.07.268.12.085.05.163.107.233.178.069.068.138.139.192.226.051.08.09.172.129.269.035.088.07.179.094.28.067-.052.128-.12.2-.196.061-.063.125-.132.19-.212.056-.07.11-.147.168-.23.053-.073.111-.148.166-.232.05-.076.098-.158.15-.242.048-.079.102-.156.152-.243.046-.08.096-.16.143-.247.044-.08.09-.164.136-.251.044-.082.091-.165.136-.252l.134-.258c.046-.089.079-.18.122-.265l.127-.262c.044-.09.095-.172.135-.257.042-.091.083-.18.12-.266.041-.092.068-.186.103-.272.038-.094.075-.183.107-.27.037-.095.071-.186.1-.274.033-.097.075-.19.1-.28-.044-.086-.104-.17-.148-.26-.043-.087-.081-.178-.126-.267-.044-.087-.08-.179-.126-.267-.044-.087-.1-.17-.146-.257-.045-.086-.083-.178-.13-.266-.045-.086-.104-.166-.15-.254l-.144-.258c-.046-.086-.085-.177-.133-.264-.047-.086-.1-.168-.149-.255l-.143-.258c-.048-.086-.1-.169-.15-.255l-.145-.257c-.049-.085-.096-.172-.146-.258-.049-.084-.094-.171-.144-.257-.05-.084-.087-.177-.137-.262-.05-.085-.103-.167-.154-.252-.05-.084-.113-.161-.165-.246-.05-.084-.089-.176-.14-.26-.05-.084-.111-.163-.163-.247l-.15-.255c-.05-.084-.097-.17-.15-.255-.05-.084-.112-.16-.164-.245-.051-.083-.098-.17-.15-.255l-.156-.25-.148-.236c-.048-.074-.09-.158-.142-.24-.048-.075-.112-.144-.165-.226-.048-.075-.094-.156-.147-.236-.048-.077-.09-.16-.143-.24a30.315 30.315 0 0 0-.15-.235c-.05-.077-.104-.151-.156-.231-.049-.077-.105-.151-.156-.231-.05-.077-.082-.168-.133-.247a1.207 1.207 0 0 0-.221-.216 2.853 2.853 0 0 0-.245-.184c-.079-.052-.17-.1-.265-.156-.082-.048-.167-.106-.263-.157-.082-.045-.162-.084-.228-.133a1.275 1.275 0 0 1-.196-.179.82.82 0 0 1-.146-.22.665.665 0 0 1 .008-.564.434.434 0 0 1 .229-.203c.082-.032.186-.03.304-.03.036 0 .063 0 .085-.002l.117-.005.085-.002.288-.001c.143 0 .143.005.287.005.143 0 .143-.013.287-.013.143 0 .144.004.287.004s.143.018.287.018l.085-.002.117-.005.085-.002h.085l.117-.004h.372l.085.001.117.003h.085c.143 0 .143.004.287.004.143 0 .143.005.287.005.143 0 .143-.014.287-.014h.085l.117.004.085.001c.036 0 .063 0 .085-.002l.117-.01.085-.002Zm-44.014.591c.094 0 .191.013.292.023.094.01.19.027.29.045a5.352 5.352 0 0 1 .568.142c.09.028.18.068.275.1.09.031.185.057.28.092.088.034.177.076.27.113.089.036.178.076.27.115l.27.116c.087.039.182.067.273.108.087.04.178.078.268.12.087.042.173.089.263.132.087.042.172.09.261.134.087.042.181.073.27.118.087.042.166.103.255.147.087.044.173.089.262.133.087.044.177.08.266.125.086.044.176.084.264.13.087.043.178.079.266.123.086.045.167.103.256.148.086.044.18.075.268.12.087.043.172.095.259.139l.264.128.268.12c.088.041.17.1.258.14l.267.122c.09.04.185.068.273.107.09.04.176.087.265.126.09.039.179.08.268.118.09.038.183.073.273.109.091.037.186.061.277.097.09.036.182.07.272.105l.276.11c.04.145-.002.152-.002.302 0 .151-.01.151-.01.302 0 .15.015.15.015.3v.604c0 .15-.01.15-.01.3 0 .152.005.152.005.302v.212l.001.09c0 .15.008.15.008.3 0 .152-.01.152-.01.302 0 .151.009.151.009.301 0 .151.01.152-.002.302-.024-.007-.052-.027-.076-.037-.091-.037-.184-.06-.271-.095-.091-.036-.176-.082-.262-.116-.092-.036-.187-.055-.272-.089-.093-.036-.175-.09-.26-.122-.094-.036-.185-.067-.269-.098-.096-.036-.187-.065-.27-.094-.1-.036-.195-.052-.275-.078-.11-.036-.197-.073-.27-.091-.019.089-.047.182-.073.285-.023.09-.04.187-.068.287-.026.09-.067.181-.097.28-.028.09-.046.188-.077.286-.03.09-.052.186-.085.283-.03.09-.08.178-.113.274-.032.09-.055.187-.089.282l-.102.277c-.041.086-.087.17-.13.255-.042.085-.082.171-.127.256l-.145.245c-.047.083-.08.175-.129.256-.049.082-.109.156-.16.237l-.081.117-.082.116c-.054.079-.092.168-.147.246-.056.078-.109.156-.166.232-.058.076-.132.139-.19.213-.06.074-.11.155-.172.228-.06.073-.132.137-.195.208-.063.071-.12.147-.184.217l-.191.213c-.066.068-.135.132-.203.2-.068.065-.134.134-.203.199-.069.064-.148.12-.218.183-.071.063-.14.127-.212.189-.072.062-.145.123-.218.183-.074.06-.154.11-.23.169-.074.058-.136.133-.213.19-.075.056-.164.095-.241.15-.077.055-.156.107-.235.16-.077.054-.152.111-.233.163-.078.052-.149.116-.23.168-.08.05-.168.085-.25.134-.08.049-.153.112-.236.16-.082.047-.165.092-.247.138l-.25.137c-.083.044-.177.067-.262.11-.084.044-.16.104-.246.147-.085.043-.173.08-.258.122-.086.04-.171.086-.258.125-.086.04-.177.07-.264.107-.087.038-.177.071-.264.108-.088.037-.175.076-.263.112-.088.035-.174.078-.263.112-.089.034-.182.056-.272.088-.09.032-.18.06-.27.09-.09.031-.176.075-.266.104l-.277.07c-.09.028-.182.053-.274.08l-.27.095c-.091.026-.185.044-.277.067-.092.023-.187.034-.28.055-.092.022-.183.05-.277.069l-.279.058c-.093.017-.185.042-.28.059-.093.016-.188.026-.28.04-.095.016-.19.022-.284.036-.094.014-.188.03-.282.041-.094.012-.187.038-.28.049l-.285.03-.284.022c-.095.007-.189.016-.284.022l-.285.014c-.095.005-.19.01-.285.012-.095.003-.19-.008-.285-.006-.095.002-.19.005-.285.005-.095 0-.19.009-.284.007l-.284-.005c-.094-.004-.188-.011-.282-.017-.095-.006-.188-.03-.282-.037-.095-.008-.188-.014-.282-.024-.094-.01-.19-.003-.283-.014-.094-.012-.185-.047-.278-.06-.094-.015-.188-.025-.28-.04-.094-.017-.186-.036-.279-.054-.092-.018-.186-.034-.278-.055-.092-.021-.184-.045-.275-.068-.091-.023-.184-.04-.275-.065-.092-.025-.18-.061-.27-.089-.09-.028-.186-.037-.276-.067-.09-.03-.177-.068-.265-.1-.089-.033-.18-.058-.268-.093-.088-.035-.172-.082-.259-.12a8.903 8.903 0 0 1-.258-.115l-.13-.06-.127-.061c-.085-.042-.168-.088-.252-.133-.083-.044-.167-.087-.25-.134-.082-.047-.168-.088-.25-.136-.08-.05-.16-.103-.239-.153-.08-.052-.15-.118-.227-.172-.079-.053-.161-.1-.238-.155-.077-.056-.158-.107-.233-.165-.075-.058-.142-.127-.215-.186-.074-.06-.145-.122-.218-.184-.075-.064-.149-.128-.22-.193-.074-.065-.153-.124-.223-.191-.07-.068-.13-.148-.198-.218-.07-.07-.149-.128-.215-.2-.067-.073-.118-.158-.181-.232-.065-.074-.137-.141-.199-.217a10.213 10.213 0 0 1-.35-.47 7.127 7.127 0 0 1-.163-.246c-.054-.082-.099-.17-.149-.254-.05-.085-.106-.166-.153-.252s-.098-.17-.142-.257c-.044-.088-.093-.174-.134-.263-.042-.089-.073-.182-.111-.274a5.77 5.77 0 0 1-.11-.274c-.034-.092-.055-.189-.087-.282-.03-.093-.063-.185-.092-.28a13.866 13.866 0 0 1-.079-.284c-.024-.095-.057-.188-.079-.284-.022-.096-.049-.19-.068-.287a9.527 9.527 0 0 1-.053-.291c-.016-.097-.035-.193-.048-.291-.014-.098-.007-.198-.018-.296-.01-.098-.02-.195-.028-.294-.007-.098-.023-.195-.028-.294-.005-.098-.013-.197-.016-.295-.002-.098.015-.197.015-.296 0-.098-.014-.197-.011-.294.003-.1.001-.197.007-.294.006-.099.031-.196.04-.293.009-.098.008-.196.02-.294a9.59 9.59 0 0 1 .04-.291c.016-.097.037-.193.055-.29l.029-.144.03-.143c.023-.096.037-.194.062-.288.025-.095.049-.19.078-.285.027-.093.062-.185.094-.278.031-.093.075-.182.11-.273.034-.092.063-.186.1-.276.039-.09.088-.175.129-.264.04-.089.081-.178.125-.265.044-.087.08-.18.127-.266.047-.085.108-.163.158-.247.048-.083.08-.173.133-.248.054-.078.117-.148.175-.22a4.526 4.526 0 0 1 .38-.411 5.08 5.08 0 0 1 .21-.186c.07-.06.155-.119.23-.176.044.138-.01.149-.01.295l-.001.085-.009.118-.002.087c0 .146.007.146.007.29 0 .037.001.064.003.087l.01.118.002.086c0 .145-.022.145-.022.291 0 .145.005.145.005.29v.087l.006.117.001.086c0 .146-.005.146-.005.291 0 .146.01.146.01.29 0 .146.003.146.003.292 0 .036 0 .063-.002.086l-.012.118-.003.086.001.086.007.118.001.086c0 .146-.009.146-.009.29 0 .147.013.147.013.292 0 .144-.016.144-.016.29 0 .145.006.145.006.29l.002.087.006.118.001.086c0 .036 0 .064-.002.086l-.008.119-.002.086v.086l.002.117v.087c0 .145.006.145.006.29 0 .037 0 .064-.002.086l-.006.118-.001.087c0 .145.018.145.018.29l.002.29.001.436v.146c0 .142-.007.26-.018.354a.96.96 0 0 1-.095.344c-.063.014-.185.044-.4.079-.003 0-.005-.009-.008-.008h-.005a.869.869 0 0 0-.294.116.755.755 0 0 0-.225.22.897.897 0 0 0-.13.288c-.026.097-.047.2-.047.315 0 .092-.008.17-.002.239a.929.929 0 0 0 .053.23c.03.09.072.17.134.236.056.06.132.109.222.152.073.036.157.065.255.09.079.02.165.044.263.059.082.011.173.007.27.015.083.007.172.015.268.02l.27.008c.085.002.175.005.27.005.143 0 .143.014.287.014s.144-.005.288-.005.144-.005.288-.005l.085-.002c.067-.003.094-.009.202-.009.144 0 .144.018.288.018.143 0 .143.004.287.004h.286c.144 0 .15-.048.29-.013.05.081.1.166.154.246.054.08.107.16.163.239.056.078.116.154.174.23.06.076.126.146.187.22.062.074.118.154.181.225.065.07.13.14.198.205.068.066.147.12.22.181.071.06.14.126.217.183.075.056.155.107.234.16.079.052.158.103.24.151.08.048.158.105.242.149.083.044.177.067.263.108.085.04.17.081.257.117.087.037.17.087.258.12.088.032.181.052.271.081.09.03.182.049.273.075.09.025.178.067.27.09.09.024.185.034.277.054.092.021.183.047.275.066.093.017.188.02.282.036.093.015.184.037.278.05.093.014.185.036.28.048.093.01.186.027.28.036.093.01.19-.001.283.006.094.008.188.012.282.018.095.006.188.015.283.019.094.004.187.02.282.024l.282.003c.095.002.19 0 .283 0 .095 0 .19-.005.285-.006.096-.002.191.009.286.005.095-.005.189-.03.284-.036.095-.007.19 0 .285-.008.095-.008.189-.03.283-.04.095-.01.191-.002.286-.015.094-.011.188-.027.282-.042.094-.014.185-.047.279-.062.094-.016.189-.025.282-.043.094-.018.189-.03.282-.05.093-.02.183-.05.276-.072a11.3 11.3 0 0 0 .276-.069c.093-.024.187-.04.278-.067.092-.026.184-.05.274-.079.092-.028.177-.075.267-.106.09-.031.181-.06.27-.092.09-.033.18-.06.27-.095.088-.035.177-.07.265-.107.088-.037.17-.085.257-.124.087-.04.18-.064.266-.105.086-.043.171-.085.256-.13.084-.044.163-.099.246-.145.084-.047.17-.088.252-.136.082-.049.165-.098.245-.149.081-.051.157-.11.235-.163.08-.054.156-.111.233-.167.077-.057.155-.113.23-.171.076-.06.156-.112.229-.173.073-.062.135-.137.206-.2a9.848 9.848 0 0 0 .413-.398c.066-.07.14-.13.204-.203.064-.07.122-.147.184-.22.06-.075.13-.14.188-.218.059-.076.097-.167.151-.245.055-.08.126-.147.177-.229.051-.08.102-.162.15-.246.047-.083.074-.178.118-.264.045-.088.096-.174.14-.263l.069-.132.067-.133c.041-.09.064-.188.103-.28.038-.092.083-.181.118-.273.035-.094.072-.186.104-.28.033-.094.051-.193.08-.287.028-.096.062-.19.087-.285.025-.098.057-.192.077-.288.02-.099.043-.196.058-.293.014-.1.012-.2.02-.298a3.423 3.423 0 0 0-.005-.592c-.009-.098-.006-.198-.023-.296-.018-.096-.043-.192-.068-.288-.025-.095-.069-.184-.1-.278-.03-.093-.057-.188-.094-.279-.038-.09-.08-.18-.123-.269-.043-.088-.091-.173-.14-.259a5.405 5.405 0 0 0-.15-.253c-.054-.082-.106-.165-.164-.244a5.28 5.28 0 0 0-.182-.231c-.064-.076-.133-.145-.2-.216-.069-.071-.137-.142-.207-.207-.073-.067-.141-.14-.217-.2-.078-.061-.166-.106-.246-.16-.075-.05-.15-.112-.237-.16-.079-.046-.17-.077-.259-.12-.083-.041-.163-.095-.252-.133-.086-.037-.178-.066-.269-.1a7.36 7.36 0 0 0-.267-.098c-.088-.031-.176-.07-.267-.1-.09-.027-.185-.043-.277-.069-.091-.025-.184-.046-.276-.069-.093-.023-.181-.06-.274-.08-.093-.02-.189-.029-.282-.046-.094-.017-.185-.045-.279-.06-.094-.014-.19-.006-.285-.017-.095-.011-.188-.027-.282-.035-.096-.01-.19-.02-.283-.025-.097-.005-.192 0-.284 0-.1 0-.197-.013-.292-.005-.098.007-.193.035-.289.05-.096.016-.194.021-.288.045-.095.023-.185.063-.277.094-.093.03-.186.06-.275.097-.09.039-.18.078-.266.122-.087.045-.168.1-.25.151a4.213 4.213 0 0 0-.245.162c-.079.057-.16.112-.234.175-.075.063-.145.133-.215.2-.07.068-.137.14-.202.213-.066.073-.13.147-.189.224-.061.078-.126.153-.18.234-.054.082-.099.17-.147.255-.049.086-.084.178-.126.266-.043.09-.087.177-.122.268-.035.093-.074.183-.102.277-.027.095-.042.192-.06.288-.02.097-.038.194-.048.29a2.935 2.935 0 0 0 .004.59c.013.097.023.198.049.294.026.095.071.184.109.277.036.091.08.179.129.265.049.086.09.179.15.255.061.079.142.138.214.203.073.067.152.123.236.172.095.054.181.11.268.151.098.047.192.086.283.12.1.038.197.07.291.096.102.028.203.045.3.066l.301.059c.099.02.197.045.3.07.095.03.192.065.283.112.09.046.173.105.256.166a1.912 1.912 0 0 1 .443.42c.062.081.106.175.153.266.047.09.1.18.13.278.03.098.04.201.052.304.011.1.027.203.018.308-.008.1-.033.2-.059.297-.025.097-.07.187-.114.28a1.61 1.61 0 0 1-.587.67c-.08.05-.177.08-.273.122-.087.04-.172.095-.272.126-.09.028-.192.036-.294.057a3.6 3.6 0 0 1-.294.05c-.095.012-.194.029-.297.035-.096.005-.196 0-.3 0-.1 0-.197-.01-.293-.019-.098-.008-.197-.008-.293-.025a3.042 3.042 0 0 1-.288-.059 3.155 3.155 0 0 1-.55-.213c-.087-.044-.176-.088-.26-.142-.081-.052-.156-.117-.235-.178-.077-.06-.146-.13-.22-.197-.07-.067-.15-.127-.218-.2-.065-.073-.124-.152-.186-.232-.06-.076-.128-.15-.184-.232-.058-.082-.097-.174-.149-.258-.052-.084-.112-.164-.158-.251-.047-.087-.082-.18-.123-.271-.04-.09-.092-.176-.129-.27-.034-.091-.057-.189-.088-.284-.03-.094-.053-.19-.077-.287-.024-.096-.054-.19-.073-.29a5.042 5.042 0 0 1-.047-.294c-.015-.097-.024-.197-.033-.296-.009-.098-.024-.197-.028-.298-.005-.097.01-.197.01-.298 0-.096.006-.19.01-.285.003-.095 0-.19.008-.285.008-.095.01-.19.02-.285.012-.095.025-.189.04-.283.016-.093.035-.187.055-.28.02-.093.05-.184.073-.276.024-.092.033-.188.061-.279.028-.091.063-.18.095-.27.031-.089.06-.18.095-.268.035-.088.08-.172.12-.259.039-.086.072-.176.115-.261.043-.084.106-.158.152-.241.046-.083.09-.167.14-.248.049-.08.088-.169.14-.248.053-.078.108-.155.164-.233.055-.076.114-.151.172-.226.058-.074.119-.147.18-.22.06-.073.125-.142.189-.212.063-.07.128-.138.194-.207.066-.068.128-.139.197-.206.066-.065.142-.123.212-.188.07-.066.145-.124.215-.184.074-.064.137-.136.21-.193.076-.06.154-.114.23-.167.078-.057.156-.11.234-.16.08-.052.16-.105.24-.15.084-.048.166-.097.249-.137.087-.042.177-.072.263-.107.088-.037.177-.066.266-.097.09-.031.179-.06.27-.085.09-.025.18-.063.27-.083.093-.02.188-.022.282-.038.092-.016.184-.035.278-.047.093-.012.187-.017.282-.026.093-.008.188-.015.282-.02.093-.006.187-.023.282-.026.093-.003.188.012.284.01h.282l.283-.002c.093 0 .187-.019.283-.019Zm32.58-1.3c.095.003.189.02.281.024.096.005.191-.001.283.006.096.008.19.028.281.038.095.01.19.016.281.03.095.015.189.028.28.045.094.019.187.039.276.06.094.023.185.05.273.077.093.027.182.058.269.09.09.032.177.071.262.108.088.038.172.082.254.125.085.045.172.084.25.134.081.052.153.115.227.172.076.058.144.125.212.188.07.066.139.13.2.201.061.07.116.145.171.224.053.075.107.152.156.235.046.08.1.157.142.244.041.083.07.173.106.263.034.086.08.17.11.261.03.088.046.182.072.275.025.09.04.183.06.277.02.09.047.181.064.276.018.09.027.185.04.28.015.092.043.184.054.28.012.092.02.186.03.282.007.093.016.186.022.282.006.093.012.188.015.284.004.093-.005.188-.003.284.002.093.005.188.005.284 0 .085.002.18 0 .283 0 .089-.012.183-.014.284-.003.09.003.185 0 .284-.002.09-.006.186-.01.285-.002.09-.011.185-.015.283-.003.091.016.187.012.285l-.01.284c-.004.098-.028.192-.03.283-.004.098.01.194.008.284-.003.1-.02.193-.023.283l-.004.283c-.002.104.01.199.01.284 0 .106-.003.209.002.308.004.107.002.21.012.31.01.105.035.205.051.303.017.105.042.204.066.3.026.104.039.208.072.301.035.1.095.186.139.275.048.092.092.195.162.29.062.084.131.17.21.257.07.078.152.153.236.233.09.076.158.148.213.215.081.102.125.19.125.269 0 .118-.03.22-.102.3a.634.634 0 0 1-.276.16 1.532 1.532 0 0 1-.413.072h-.36l-.135-.002a6.947 6.947 0 0 1-.274-.018c-.094-.008-.186-.011-.274-.023-.093-.014-.184-.026-.272-.045-.092-.019-.178-.05-.264-.075-.09-.026-.181-.044-.265-.076-.088-.033-.168-.079-.248-.12-.084-.041-.167-.08-.243-.13a2.326 2.326 0 0 1-.225-.16c-.071-.06-.126-.136-.187-.205-.062-.068-.135-.128-.187-.204a1.991 1.991 0 0 1-.137-.234c-.083.057-.163.102-.246.155-.085.053-.17.104-.254.154-.087.052-.172.104-.257.152-.088.048-.178.09-.265.135-.09.046-.178.09-.267.133-.09.043-.182.08-.271.12-.093.038-.18.091-.27.125-.095.035-.195.048-.288.078-.096.03-.188.066-.283.09-.097.026-.192.055-.287.074a5.197 5.197 0 0 1-.59.078c-.1.007-.198.01-.296.01-.1 0-.2-.012-.297-.019a3.537 3.537 0 0 1-.587-.086c-.098-.022-.2-.025-.294-.055-.095-.03-.188-.069-.279-.107-.092-.038-.179-.088-.267-.134-.088-.046-.17-.1-.254-.155-.084-.054-.169-.105-.247-.167-.078-.06-.147-.133-.222-.202-.073-.068-.155-.125-.22-.198a.804.804 0 0 1-.062-.08l-.11-.165a2.853 2.853 0 0 1-.165-.246c-.05-.086-.112-.166-.154-.256-.04-.09-.057-.19-.09-.286-.032-.093-.07-.185-.094-.283a3.316 3.316 0 0 1-.053-.294c-.015-.097-.016-.196-.023-.298a4.086 4.086 0 0 1-.01-.297c0-.101-.02-.2-.015-.297.006-.1.034-.197.045-.293a3.833 3.833 0 0 1 .11-.58c.027-.096.042-.194.077-.285.034-.093.088-.178.13-.265.044-.09.087-.177.139-.26.051-.084.107-.165.167-.242.06-.078.12-.155.188-.227.066-.07.141-.134.216-.199a3.15 3.15 0 0 1 .231-.178c.079-.057.157-.115.242-.166a4.378 4.378 0 0 1 .521-.267c.09-.036.183-.064.277-.096.083-.03.168-.067.263-.094.085-.024.179-.035.274-.057.087-.02.175-.047.27-.065.089-.017.18-.04.275-.055.088-.014.182-.019.278-.03.089-.013.18-.032.276-.043.09-.01.184-.003.279-.011.09-.01.181-.033.276-.04.092-.007.185-.005.28-.011.09-.006.183-.023.277-.028.092-.004.186.01.28.006.092-.003.184-.018.279-.021.092-.004.184-.004.279-.006.092-.002.185.008.279.006.092 0 .184-.019.279-.02.092 0 .189.009.283.009.045-.129.001-.138.001-.275 0-.136.006-.136.006-.272 0-.034 0-.06-.002-.081l-.006-.11-.001-.082c0-.136.006-.136.006-.272 0-.137-.02-.137-.02-.273s.022-.136.022-.273c0-.096-.005-.19-.011-.281-.007-.097-.021-.19-.034-.28-.015-.096-.026-.19-.049-.277-.024-.094-.071-.177-.105-.262a1.805 1.805 0 0 0-.118-.252 1.507 1.507 0 0 0-.36-.424 1.438 1.438 0 0 0-.234-.154c-.08-.042-.17-.066-.26-.096a2.249 2.249 0 0 0-.269-.07c-.088-.017-.177-.047-.273-.055a3.212 3.212 0 0 0-.278-.01c-.101 0-.197.013-.286.016-.102.003-.198-.002-.285.007-.106.01-.2.032-.281.049-.112.023-.2.057-.27.092-.11.057-.159.128-.159.216 0 .05.04.136.13.258.05.065.11.144.185.23.056.065.104.133.146.207a1.199 1.199 0 0 1 .162.478c.013.082.028.166.028.254 0 .101-.017.197-.028.288-.011.1-.037.192-.063.28a1.348 1.348 0 0 1-.106.264 1.105 1.105 0 0 1-.383.413c-.077.05-.159.098-.25.135a1.99 1.99 0 0 1-.276.075c-.088.019-.182.026-.28.035-.091.008-.185.02-.285.02-.092 0-.183.01-.27-.002-.09-.011-.176-.043-.261-.067-.088-.025-.175-.046-.256-.085-.082-.038-.152-.097-.227-.148a1.646 1.646 0 0 1-.21-.169 1.59 1.59 0 0 1-.182-.196c-.055-.072-.1-.15-.14-.23-.04-.08-.066-.166-.092-.252-.025-.085-.062-.17-.075-.26-.011-.088 0-.179 0-.272 0-.104-.01-.207.003-.307.012-.102.038-.201.063-.3.025-.099.05-.199.088-.293.038-.094.094-.18.144-.27.049-.087.106-.17.167-.255.059-.08.12-.16.19-.237.067-.073.134-.15.21-.22.073-.068.148-.138.23-.201.078-.061.165-.114.25-.172.079-.05.153-.106.231-.152.08-.046.162-.089.243-.13.082-.041.165-.08.25-.116.083-.036.174-.056.26-.087.086-.032.17-.07.257-.097.087-.026.178-.038.267-.06.089-.02.178-.041.269-.057.089-.015.18-.022.27-.032.091-.01.182-.018.274-.023.09-.004.181-.017.273-.017.096 0 .19-.009.283-.007Zm38.95-.016c.1-.003.201.006.303.006.089 0 .182-.004.278.008.089.01.181.029.275.05.088.018.18.036.273.064.086.026.175.056.266.088.085.032.169.073.258.11.084.036.175.061.262.103.093.045.179.088.261.126.096.045.184.085.264.12.102.046.191.086.265.116.143.056.233.1.274.1.094 0 .228-.035.398-.091.075-.027.142-.052.206-.066.08-.017.151-.036.215-.036.1 0 .17.048.217.113.04.057.055.135.055.24 0 .086.005.182.016.289.01.087.036.18.053.282.015.09.028.184.048.283.019.09.038.183.061.281.021.09.046.182.071.279.024.095.053.184.074.271.023.096.033.19.051.277.021.098.036.19.05.278.017.1.044.19.054.276.011.105.009.2.009.281 0 .14-.039.248-.122.315a.521.521 0 0 1-.328.09c-.075 0-.155-.072-.257-.196-.059-.07-.139-.15-.206-.261-.052-.086-.103-.186-.161-.295-.042-.084-.069-.172-.111-.25-.044-.083-.099-.156-.143-.232-.048-.082-.102-.155-.148-.229-.051-.08-.088-.165-.138-.235-.056-.078-.12-.143-.175-.209-.063-.075-.119-.145-.181-.204-.07-.07-.151-.123-.226-.183-.076-.061-.15-.124-.231-.175-.082-.052-.163-.108-.249-.15a2.508 2.508 0 0 0-.268-.115c-.091-.03-.19-.037-.285-.058a2.773 2.773 0 0 0-.285-.041 2.874 2.874 0 0 0-.289-.018c-.095 0-.187-.012-.274-.007-.095.005-.186.016-.272.026-.096.012-.185.03-.269.049-.095.021-.182.05-.261.08-.092.035-.181.064-.252.111-.081.054-.135.13-.19.199a.745.745 0 0 0-.139.235.932.932 0 0 0-.027.274c0 .1-.008.201.009.298.018.097.047.193.082.287.033.091.091.173.141.26.047.084.094.17.156.252.058.076.116.156.186.23.066.069.144.13.22.198.072.062.149.124.23.185.077.057.152.12.237.176.081.053.162.108.25.159.084.049.177.082.262.13.084.05.166.102.251.15.084.05.165.105.249.154.085.049.168.1.253.148.085.05.174.089.258.137.085.05.161.113.246.162l.254.146c.084.05.174.087.259.137l.25.151.254.147c.085.048.173.09.258.139.077.06.159.111.231.173a4.365 4.365 0 0 1 .41.409c.065.073.108.163.165.239.058.078.129.146.18.226.053.083.098.169.143.253.044.087.09.172.127.262.037.089.061.183.091.276.029.091.05.186.072.28.022.095.044.188.057.285.015.094.034.19.041.288.007.096-.001.193-.001.291 0 .095-.007.186-.014.277-.007.095-.004.189-.019.279-.014.093-.048.18-.07.27-.023.09-.052.177-.082.264-.031.088-.047.181-.086.265-.04.083-.088.164-.136.243-.046.08-.107.15-.162.225-.055.074-.107.15-.169.22-.06.067-.124.134-.193.199-.065.062-.13.128-.203.188-.074.061-.155.114-.233.17-.079.056-.163.102-.245.152-.081.05-.164.1-.248.144-.086.044-.167.099-.255.137a4.097 4.097 0 0 1-.825.253 4.705 4.705 0 0 1-.571.071c-.095.006-.191-.004-.288-.004-.084 0-.174-.002-.271-.011-.084-.008-.176-.01-.271-.024-.085-.014-.175-.027-.269-.046-.084-.017-.173-.039-.265-.06-.085-.02-.169-.06-.26-.084-.084-.022-.172-.044-.262-.07-.085-.024-.177-.032-.267-.06-.087-.027-.166-.074-.249-.098-.089-.026-.177-.045-.26-.067-.09-.024-.176-.048-.259-.068-.091-.021-.178-.038-.262-.055-.092-.02-.179-.039-.262-.052-.094-.016-.184-.02-.267-.028-.096-.01-.185-.025-.267-.025-.065 0-.141.038-.231.076a1.387 1.387 0 0 0-.218.108c-.08.048-.149.094-.214.121a.601.601 0 0 1-.24.047.658.658 0 0 1-.262-.05.457.457 0 0 1-.205-.168.69.69 0 0 1-.096-.253 1.375 1.375 0 0 1-.027-.27c0-.141-.008-.141-.008-.281l.001-.084.002-.113v-.084c0-.14.016-.14.016-.28s-.01-.14-.01-.28-.008-.14-.008-.28.013-.14.013-.28l.002-.28-.001-.28c0-.14-.011-.14-.011-.28l.002-.082.011-.114.002-.083c0-.14-.018-.14-.018-.28 0-.096.031-.172.061-.237a.318.318 0 0 1 .157-.178.571.571 0 0 1 .24-.045c.072 0 .144.045.215.13.046.056.09.13.134.221.034.07.061.153.094.244.027.075.063.154.089.244.033.098.067.187.095.272.033.1.07.19.097.272.035.106.058.2.083.276.055.163.087.253.096.27.046.071.092.15.159.215.059.059.13.116.205.171.067.05.142.099.222.145.073.043.156.077.24.116.076.037.159.066.245.1.089.036.177.069.262.099.091.031.18.055.266.08.093.028.179.068.266.088.095.02.188.035.277.046.096.012.19.008.278.008.1 0 .197-.008.293-.017.098-.008.198-.003.293-.02.097-.018.19-.056.282-.083.094-.027.184-.065.274-.102.091-.039.186-.065.272-.113.088-.047.162-.106.235-.159.082-.058.152-.12.214-.186a1.01 1.01 0 0 0 .274-.494c.022-.089.024-.184.024-.283 0-.091-.012-.18-.032-.273a1.484 1.484 0 0 0-.077-.265c-.035-.082-.066-.169-.115-.252-.045-.076-.104-.148-.162-.224-.055-.07-.106-.148-.171-.219a3.267 3.267 0 0 0-.195-.196c-.064-.062-.14-.114-.213-.176-.068-.058-.13-.127-.205-.185-.071-.054-.157-.092-.234-.147-.079-.056-.153-.118-.233-.174l-.237-.168-.239-.166-.237-.168-.243-.16c-.079-.056-.154-.118-.233-.174-.08-.055-.152-.122-.231-.177-.08-.056-.163-.106-.243-.16-.08-.056-.168-.1-.247-.155-.08-.055-.147-.129-.226-.184-.08-.055-.162-.107-.242-.162-.071-.06-.145-.117-.211-.178-.069-.064-.132-.133-.194-.198-.066-.068-.136-.13-.195-.198-.062-.072-.123-.142-.178-.215-.056-.075-.095-.161-.144-.238-.051-.08-.106-.154-.149-.234-.044-.084-.076-.171-.111-.255-.037-.087-.081-.17-.109-.257-.028-.089-.036-.183-.054-.273-.02-.091-.04-.182-.05-.274-.009-.092-.022-.185-.022-.278 0-.103.016-.203.025-.3.01-.102.021-.201.041-.298.021-.1.041-.197.072-.291.032-.096.077-.185.12-.274.044-.091.078-.187.133-.27a2.421 2.421 0 0 1 .39-.457 2.98 2.98 0 0 1 .483-.353c.087-.05.181-.09.273-.134.089-.042.182-.084.277-.121.093-.036.192-.059.289-.09.094-.029.192-.056.291-.08.096-.023.194-.047.295-.066.098-.018.196-.04.298-.053.099-.012.198-.024.301-.032.098-.008.2-.005.301-.01Zm-11.115-.205c.094-.004.19.01.287.01.098 0 .197.002.294.007.099.005.197.01.294.02.099.01.196.018.292.034.099.016.194.042.289.064.096.022.193.04.286.068.095.028.189.058.282.091.092.035.187.064.277.104.09.04.172.098.259.144.088.045.176.089.261.14.083.052.166.105.247.162.081.057.158.118.236.18.077.06.148.13.222.197.073.065.153.124.224.195.069.07.132.147.199.221.063.07.12.146.18.219.06.073.117.148.173.223.057.077.118.149.171.227.052.079.095.165.143.245a5.151 5.151 0 0 1 .264.501c.04.087.091.167.126.255.036.088.07.177.1.267a6.304 6.304 0 0 1 .156.548c.021.091.027.187.044.281.017.093.041.185.053.28.013.093.03.187.038.282a6.617 6.617 0 0 1 .025.57.74.74 0 0 1-.056.311.42.42 0 0 1-.232.203 1.238 1.238 0 0 1-.283.076c-.082.013-.181.01-.293.021-.088.01-.185.02-.291.028-.091.006-.189.014-.293.02-.092.005-.19 0-.293.006-.094.004-.19.026-.293.03-.093.004-.191-.011-.293-.008-.094.003-.192.01-.293.013-.095.003-.192.014-.292.016l-.294.006c-.095.002-.193-.011-.293-.01-.096.003-.193.018-.293.02h-.293c-.097.002-.194-.003-.294-.002-.096 0-.194.01-.294.01a52.24 52.24 0 0 1-.293.003c-.096 0-.193.006-.293.007-.096 0-.193-.013-.293-.013-.096 0-.194.014-.293.014h-.293c-.097 0-.195-.008-.294-.008-.096 0-.188-.003-.278-.003-.096 0-.188.017-.276.015-.098 0-.19-.02-.278-.022-.099-.002-.191.014-.277.012-.102-.002-.194-.014-.277-.017-.108-.004-.194 0-.27-.006.002.097-.007.188-.002.282.005.098.015.193.023.287.009.096.032.19.045.283.013.097.015.193.032.285.018.096.045.188.067.28a5.158 5.158 0 0 0 .167.547c.035.092.071.18.11.265.041.088.089.17.135.251.048.085.088.172.141.25.055.078.12.148.181.22.062.073.125.144.194.209.069.066.133.136.209.195.074.058.151.114.232.165.08.05.17.082.256.125.083.043.162.098.252.133.087.035.182.049.274.077.089.027.177.062.271.083a4.3 4.3 0 0 0 .279.056c.091.014.186.02.282.029.092.009.187.005.284.008.093.005.187.02.283.02a3.99 3.99 0 0 0 .823-.1c.088-.022.18-.038.27-.064.086-.027.172-.064.261-.095.085-.032.171-.066.257-.103.084-.035.165-.08.25-.121.082-.039.173-.064.256-.108a6.69 6.69 0 0 0 .244-.136c.079-.046.152-.107.232-.158.078-.049.161-.091.24-.145.075-.052.153-.103.231-.158.073-.054.146-.112.222-.17.073-.056.139-.124.213-.184.071-.057.143-.117.215-.178.118-.1.12-.097.238-.198l.07-.059c.055-.046.078-.064.165-.14.118-.1.104-.12.241-.19.149 0 .227.087.227.278a.93.93 0 0 1-.089.343c-.032.084-.084.166-.131.259-.042.082-.081.17-.134.259-.047.079-.095.163-.152.247-.052.077-.118.15-.177.23-.056.076-.106.16-.167.24-.057.073-.126.142-.19.22-.059.072-.113.154-.177.23l-.195.223c-.067.077-.136.147-.202.218-.069.074-.141.142-.207.21-.072.074-.136.15-.205.215-.074.072-.144.141-.215.203-.078.068-.157.128-.231.185a3.368 3.368 0 0 1-.24.172c-.082.052-.171.093-.258.14a4.535 4.535 0 0 1-.536.24c-.09.032-.179.074-.274.103-.093.028-.188.049-.284.072a6.96 6.96 0 0 1-.288.06c-.094.018-.19.043-.288.057-.095.013-.194.013-.293.023-.095.01-.193.018-.292.024-.096.007-.194.006-.293.01-.097.002-.193.006-.293.006-.099 0-.196 0-.292-.004-.098-.004-.197.003-.293-.004-.097-.01-.193-.03-.289-.042a6.648 6.648 0 0 1-.288-.047c-.096-.019-.192-.037-.286-.06a5.081 5.081 0 0 1-.282-.078c-.093-.028-.185-.061-.276-.094-.092-.034-.188-.055-.278-.093-.089-.04-.177-.085-.263-.129-.088-.043-.171-.095-.256-.143-.084-.05-.169-.098-.251-.152-.082-.054-.156-.118-.234-.177a4.162 4.162 0 0 1-.23-.18 4.487 4.487 0 0 1-.22-.195c-.072-.066-.147-.128-.217-.199-.067-.07-.142-.134-.208-.208-.062-.07-.119-.145-.178-.217a6.397 6.397 0 0 1-.173-.222c-.056-.075-.103-.157-.156-.234-.053-.077-.114-.15-.163-.229-.05-.08-.105-.156-.151-.238-.045-.082-.077-.172-.119-.256-.042-.084-.087-.166-.126-.252-.038-.086-.071-.173-.105-.261a5.844 5.844 0 0 1-.096-.266c-.03-.088-.054-.18-.08-.27-.026-.09-.057-.18-.079-.271-.022-.091-.044-.183-.062-.275-.018-.092-.038-.184-.053-.278-.014-.093-.024-.187-.035-.28-.01-.094-.003-.189-.01-.283-.007-.093-.021-.187-.025-.281-.003-.094-.009-.188-.009-.283 0-.098.006-.195.01-.29.004-.098 0-.196.007-.291a6.82 6.82 0 0 1 .029-.29c.011-.096.045-.19.06-.284.016-.097.029-.192.049-.286.02-.096.047-.188.072-.282.025-.093.044-.188.074-.28.028-.093.057-.185.091-.276.033-.09.078-.176.116-.265.039-.089.079-.176.122-.263.042-.086.089-.17.135-.255.046-.084.096-.167.147-.249.05-.082.1-.164.155-.244.054-.08.096-.168.155-.245.058-.077.131-.14.193-.215.061-.074.12-.15.184-.222.065-.071.12-.152.189-.221.067-.07.139-.133.209-.197.071-.066.152-.12.225-.181.072-.063.137-.137.212-.195.076-.06.164-.101.242-.156.078-.055.147-.127.227-.178.081-.051.172-.085.256-.132.083-.048.165-.095.251-.138.085-.042.173-.081.26-.12.087-.038.174-.08.263-.114.089-.034.177-.072.268-.102a6.25 6.25 0 0 1 .276-.079c.091-.025.186-.04.28-.06.093-.02.185-.044.28-.06.093-.016.187-.033.282-.044.095-.013.19-.02.286-.028.094-.008.189-.02.285-.024Zm-87.199.309c.148 0 .226.062.248.174 0 .002-.002.001-.002.004v.087l.004.12.001.087c0 .146.002.146.002.293v.381c-.002.068-.003.096-.003.206v.087l.004.119v.38c0 .147.003.147.003.294v.087l-.002.12v.086c0 .147.004.147.004.293 0 .147-.015.147-.015.294 0 .146.008.146.008.293l.001.293c0 .147-.004.147-.004.294 0 .146.01.146.01.293v.087c.002.07.004.097.004.207 0 .146-.017.146-.017.293 0 .146.017.146.017.293s-.01.147-.01.293c.001.102-.007.202-.006.3 0 .102.004.202.005.3.001.102.02.202.02.3.002.101-.008.201-.007.3.002.101-.005.201-.005.3.002.101.009.201.01.299 0 .102.002.201.003.3 0 .101.004.201.005.3l.002.298v.3c.001.103-.008.203-.007.3 0 .104.015.203.016.3 0 .103-.003.203-.003.299l.002.299c0 .116.014.22.033.318.024.113.054.213.103.3a.77.77 0 0 0 .214.231c.081.061.169.116.277.15.09.029.175.055.246.093a.863.863 0 0 1 .208.163.646.646 0 0 1 .134.226c.03.08.05.166.05.26a.511.511 0 0 1-.063.252.347.347 0 0 1-.195.159.71.71 0 0 1-.252.046c-.141 0-.141-.006-.282-.006s-.141-.004-.282-.004c-.036 0-.062 0-.084.002l-.114.01-.084.002c-.14 0-.14-.007-.281-.007l-.084.001-.115.004h-.084c-.14 0-.14-.01-.282-.011-.14-.001-.14-.007-.281-.008h-.084l-.115.009h-.084c-.14 0-.14-.007-.281-.009l-.281-.002c-.142-.001-.142-.003-.282-.004l-.282-.004c-.141-.001-.141.005-.282.003h-.083l-.115.003h-.167c-.066 0-.092.002-.198.001-.14-.001-.14-.02-.282-.021a.567.567 0 0 1-.258-.044.368.368 0 0 1-.186-.19c-.03-.071-.025-.163-.025-.268 0-.106.019-.205.083-.295a.833.833 0 0 1 .227-.216c.079-.05.177-.09.283-.133a.77.77 0 0 0 .26-.17.917.917 0 0 0 .181-.255c.043-.088.07-.19.096-.3.022-.096.037-.2.048-.312.009-.1.013-.204.013-.316 0-.147.003-.147.003-.293 0-.147.004-.147.004-.294 0-.146.01-.146.01-.293 0-.146-.016-.146-.016-.292 0-.147.01-.147.01-.294 0-.146.01-.146.01-.293 0-.146-.003-.146-.003-.292 0-.147-.015-.147-.015-.293 0-.147-.004-.147-.004-.293v-.293c0-.147.022-.147.022-.293 0-.147-.01-.147-.01-.293 0-.147.008-.147.008-.294 0-.145-.01-.145-.01-.292s.01-.147.01-.293c0-.147-.003-.147-.003-.293s-.007-.146-.007-.293c0-.146.012-.146.012-.292 0-.147-.019-.147-.019-.294a.924.924 0 0 0-.051-.308.714.714 0 0 0-.147-.278.906.906 0 0 0-.257-.183 1.459 1.459 0 0 0-.299-.096 2.234 2.234 0 0 1-.25-.081c-.09-.034-.176-.061-.243-.102a.657.657 0 0 1-.19-.185.426.426 0 0 1-.074-.25c0-.076.052-.166.175-.252.038-.026.125-.06.246-.126.068-.038.148-.08.242-.13.074-.04.158-.076.247-.122.076-.04.153-.09.24-.135.078-.04.163-.075.248-.12.078-.04.154-.093.24-.137.078-.04.162-.077.248-.12.08-.042.164-.09.256-.138.082-.042.165-.095.257-.141.082-.043.172-.082.262-.128.084-.043.169-.091.259-.137.084-.042.177-.076.267-.12.084-.043.174-.08.264-.124.085-.043.17-.091.26-.135l.26-.13a.741.741 0 0 1 .282-.066ZM61.25 4.634c.036 0 .063 0 .086.002l.118.01.087.002c.145 0 .145-.01.29-.01s.145.014.29.014c.037 0 .064-.001.087-.003l.118-.01.086-.001c.146 0 .146.014.291.014s.145-.008.291-.008l.086.001.118.007.087.001h.377l.059.001H63.953l.117-.007.087-.001.204.001h.086l.087-.001.118-.007.086-.001h.086l.118.004.086.001c.146 0 .146.011.29.011h.087l.118-.005h.087a.3.3 0 0 1 .234.093c.05.056.088.135.11.238.015.075.021.163.021.265 0 .062-.03.141-.101.23a1.639 1.639 0 0 1-.174.187c-.057.052-.124.104-.197.162a5.544 5.544 0 0 1-.245.181c-.078.055-.167.104-.257.162-.077.052-.143.113-.211.166-.074.058-.145.113-.207.173a2.244 2.244 0 0 0-.342.415c-.047.08-.091.16-.123.243-.033.085-.036.178-.052.267a1.5 1.5 0 0 0-.025.268v.385c-.001.07-.004.098-.004.21 0 .148-.015.148-.015.296 0 .149.01.149.01.298 0 .148.004.148.004.296s-.016.148-.016.297c0 .037.001.065.003.088l.01.12.002.089c0 .148-.007.148-.007.297 0 .148-.005.148-.005.297 0 .148.008.148.008.297 0 .148.01.148.01.296v.297c0 .149-.007.149-.007.297l.001.298-.001.088-.006.12-.002.088c0 .148.004.148.004.297s-.008.149-.008.297.015.148.015.296l.001.149v.149c0 .148-.1.181.002.288.098.103.132.008.274.008.142 0 .142-.01.284-.01.14 0 .14.006.282.006.036 0 .062 0 .084.002l.115.007.084.002.084-.002.115-.01.084-.003c.141 0 .141.007.282.007.142 0 .142-.002.283-.002s.141.004.283.004c.141 0 .141-.012.282-.012.142 0 .142.002.283.002.142 0 .142.012.283.012.142 0 .142-.004.283-.004s.141.01.283.01c.14 0 .14-.004.283-.004.084 0 .118.002.162.004l.003-.016c.132-.044.14-.013.282.005l.05.005.068-.003c.141 0 .141-.01.283-.01.07 0 .105.005.14.01h.016c.14 0 .14-.012.28-.012.139 0 .139.018.278.018l-.049-.001c.055-.006.086-.015.182-.015h.566c.14 0 .14.018.282.018.141 0 .141.003.283.003.14 0 .14-.008.283-.008l.083-.002c.067-.003.093-.008.198-.008.142 0 .142.003.283.003l.084.002c.067.002.093.007.2.007.14 0 .14.004.281.004.142 0 .142-.02.283-.02s.141.016.283.016c.141 0 .185.098.284-.002.1-.102-.009-.146-.009-.289s.017-.143.017-.286v-.285c0-.143-.013-.143-.013-.286v-.085l.004-.116.001-.084c0-.143.006-.143.006-.286s-.018-.143-.018-.286c0-.035 0-.062.002-.084l.007-.116.002-.085v-.085l.003-.115v-.085l.001-.143V10.696l-.001-.116v-.085c0-.142-.006-.142-.006-.284 0-.143.01-.143.01-.286s-.01-.143-.01-.286l-.001-.085-.004-.116v-.084c0-.143.016-.143.016-.285v-.085l.002-.116v-.17l-.001-.2-.002-.085c-.002-.067-.008-.093-.008-.2a2.173 2.173 0 0 0-.174-.843c-.036-.088-.068-.178-.116-.264-.047-.081-.093-.166-.15-.246-.055-.076-.128-.14-.193-.214-.061-.07-.122-.145-.193-.213-.068-.065-.144-.123-.22-.185l-.228-.194c-.082-.069-.156-.136-.225-.197-.083-.073-.148-.149-.213-.21-.085-.082-.162-.145-.217-.208-.104-.117-.148-.2-.148-.251 0-.145.008-.26.04-.348.05-.13.139-.185.263-.185h.087l.118-.004.086-.001c.146 0 .146-.01.29-.01l.087.001.118.006.086.002h.086l.118-.003h.291l.086-.001h.377l.059-.001h.145c.145 0 .145.007.29.007s.145-.014.29-.014c.146 0 .146.004.29.004h.437c.036.001.072.002.145.002.145 0 .145.01.29.01h.29c.146 0 .146-.011.29-.011.146 0 .146-.008.291-.008s.145.01.29.01c.146 0 .146.005.29.005l.087.001.118.005h.086c.036 0 .063 0 .086-.002l.118-.01.086-.001c.145 0 .145.006.29.006s.145-.013.29-.013c.037 0 .064.001.087.003l.117.011.087.003c.098 0 .172.03.231.094a.49.49 0 0 1 .105.236c.016.075.038.161.038.263 0 .066-.047.146-.127.242-.05.06-.107.131-.187.202-.062.053-.14.102-.22.164-.067.051-.145.1-.225.155-.07.05-.146.101-.227.154-.078.052-.14.117-.209.17-.073.058-.146.111-.209.171-.067.065-.123.136-.177.203a1.762 1.762 0 0 0-.15.223c-.048.08-.102.153-.133.236-.032.085-.044.176-.06.265a1.501 1.501 0 0 0-.021.269c0 .036 0 .063-.002.086l-.008.117-.001.086-.001.086-.004.117-.001.086.001.086.005.117.001.086c0 .144-.007.144-.007.288 0 .145.003.145.003.29 0 .144-.003.144-.003.288l-.001.203v.086c0 .144.007.144.007.288 0 .145.015.145.015.289 0 .145-.01.145-.01.289l.001.144v.23l.001.059v.144c0 .145.006.145.006.289s-.013.144-.013.289c0 .144.013.144.013.288v.29c0 .143-.009.143-.009.288v.085c-.002.068-.006.095-.006.203 0 .144.008.144.008.289 0 .144.007.144.007.289 0 .144-.021.144-.021.288v.086l.002.117v.171c0 .068-.002.095-.002.203 0 .036.001.063.003.086l.014.117.004.086c0 .144-.016.144-.016.289v.577c0 .143.003.143.003.288v.085c-.001.068-.003.095-.003.203 0 .145.013.145.013.289s-.018.144-.018.288c0 .145.01.145.01.29 0 .143.007.143.007.288 0 .144-.004.144-.004.288 0 .145-.005.145-.005.289s.01.144.01.288-.007.144-.007.29c0 .143.006.143.006.288v.143a24.402 24.402 0 0 0-.001.23l-.005.118v.086l.002.288v.086l-.002.117v.086c0 .144.01.144.01.288s-.004.144-.004.289l-.001.086-.005.117v.086c0 .097.018.193.038.289.018.095.029.193.066.286.034.088.093.167.144.254.048.08.086.172.148.253.057.074.135.135.205.208.064.068.121.148.197.216.07.062.153.114.232.175.08.063.16.119.231.175.08.066.157.125.225.182.082.069.14.149.204.207.084.076.168.128.221.188.102.11.158.197.158.248 0 .14-.035.249-.07.332-.049.12-.129.186-.251.186l-.087.001-.118.004-.086.001h-.204l-.087.001c-.145 0-.145-.012-.29-.012h-.377l-.118-.003h-.086c-.145 0-.145.013-.29.013l-.146.001a15.919 15.919 0 0 1-.23-.001l-.119-.008-.086-.002-.29.002h-.087l-.118.002h-.086c-.145 0-.145-.005-.29-.005l-.087-.001c-.067-.001-.095-.004-.203-.004-.146 0-.146.019-.29.019-.146 0-.146-.004-.291-.004-.037 0-.064 0-.086-.002l-.118-.01-.086-.003-.087.002-.118.007-.086.002c-.145 0-.145-.006-.29-.006h-.145l-.145.001c-.146 0-.146-.002-.29-.002-.146 0-.146-.002-.291-.002l-.086.001-.118.006-.087.001-.086-.001-.117-.007-.087-.001c-.144 0-.144.017-.29.017-.133 0-.22-.076-.273-.2a.856.856 0 0 1-.073-.352c0-.08.039-.173.116-.269.051-.065.128-.127.215-.2.067-.055.152-.103.24-.164.074-.05.146-.119.235-.172.081-.05.163-.092.235-.145.076-.057.139-.125.205-.186a2.25 2.25 0 0 0 .194-.197c.06-.071.121-.14.17-.217.051-.079.087-.164.125-.248.038-.085.09-.164.116-.254.033-.108.045-.21.063-.3.024-.116.049-.217.049-.302 0-.144-.008-.144-.008-.288 0-.143.007-.143.007-.287 0-.143-.007-.143-.007-.288 0-.143-.008-.143-.008-.287l.001-.143v-.144c0-.143.015-.143.015-.287v-.143a15.692 15.692 0 0 1-.003-.23l-.008-.116-.002-.085c0-.143.007-.143.007-.287s-.006-.144-.006-.287v-.085l.002-.117v-.17c.001-.068.002-.095.002-.203V16.955c0-.143-.01-.143-.01-.288v-.085c0-.067-.002-.094-.002-.202v-.085l.007-.116v-.085c0-.144-.007-.144-.007-.288 0-.143.109-.185.009-.287-.1-.102-.142.003-.284.003-.141 0-.141.006-.283.006s-.142-.017-.283-.017c-.14 0-.14.007-.283.007-.14 0-.14.002-.282.002h-.084c-.067-.002-.093-.004-.199-.004h-.084c-.066.002-.093.004-.199.004-.141 0-.141-.008-.282-.008-.142 0-.142.016-.283.016s-.141-.01-.283-.01c-.141 0-.141.006-.283.006h-.084l-.115.003a.24.24 0 0 1-.102.001c-.123 0-.13-.003-.264-.003h-.142l-.14-.001h-.085c-.066-.001-.093-.003-.199-.003h-.095l-.06.002c-.14 0-.14.005-.281.005l-.083-.001-.115-.004-.083-.001c-.14 0-.14-.006-.281-.006-.141 0-.153.06-.285.013l.008-.015a3.275 3.275 0 0 0-.138-.002c-.141 0-.141-.004-.283-.004-.14 0-.14.012-.282.012-.142 0-.142-.01-.282-.01-.142 0-.142.009-.283.009h-.142l-.14-.002h-.367c-.066 0-.093.003-.2.003h-.083l-.057-.001h-.225l-.199.001c-.141 0-.141.005-.282.005-.142 0-.142-.017-.283-.017s-.179-.086-.279.016c-.1.102.002.14.002.283 0 .144-.005.144-.005.287 0 .144.004.144.004.287l.002.288c0 .144-.01.144-.01.287s.002.143.002.287v.085l.003.117v.085c0 .144-.013.144-.013.287s.017.143.017.287.003.144.003.287c0 .036 0 .063-.002.085l-.007.117-.002.085c0 .144.011.144.011.287a.994.994 0 0 1-.003.086l-.014.116-.003.085c0 .144.019.144.019.288 0 .143-.017.143-.017.287v.143l.002.144v.085l-.001.058v.144c0 .143.006.143.006.287 0 .093.01.183.03.273.018.096.052.187.088.281.034.09.074.178.125.266.048.082.09.173.152.253.057.075.129.144.199.218.065.069.13.143.206.21.07.063.152.12.232.18.08.063.15.13.222.188.08.064.153.128.221.186.082.069.165.12.229.178.084.076.156.141.21.201.103.11.155.196.155.247 0 .14-.02.254-.055.336a.265.265 0 0 1-.265.174l-.086.002-.118.01-.087.003c-.145 0-.145-.005-.29-.005-.037 0-.064 0-.087-.002l-.118-.01-.086-.001c-.146 0-.146.007-.291.007s-.145-.01-.29-.01a.977.977 0 0 0-.087.003l-.118.015-.086.003c-.146 0-.146-.01-.292-.01-.145 0-.145.005-.29.005s-.146-.007-.29-.007l-.087-.002c-.068-.002-.096-.007-.205-.007-.145 0-.145.004-.29.004-.146 0-.146.013-.29.013l-.087-.002-.118-.008-.087-.002c-.036 0-.063 0-.086.002l-.118.01-.086.003c-.036 0-.064 0-.086-.002l-.118-.01-.087-.003h-.29l-.087.002-.118.007-.086.002h-.377l-.118-.001h-.087c-.145 0-.145.005-.29.005h-.087l-.118-.004-.086-.001c-.146 0-.146.004-.29.004a.33.33 0 0 1-.227-.088.41.41 0 0 1-.107-.217 1.082 1.082 0 0 1-.022-.245c0-.085.006-.174.058-.257.043-.067.113-.124.19-.188.06-.052.13-.107.213-.157l.116-.079.108-.075c.083-.054.166-.092.234-.14.085-.057.153-.118.217-.166.089-.066.17-.111.222-.159.068-.073.118-.161.174-.244.056-.081.1-.17.145-.26.043-.089.088-.177.12-.274.03-.092.068-.186.089-.287.02-.095.02-.196.031-.298l.012-.07c.002-.145.01-.145.01-.291l-.002-.086-.007-.118-.001-.087c0-.145.016-.145.016-.29s-.021-.145-.021-.29v-.376l-.001-.205.002-.29.001-.086.008-.118.002-.086v-.29c0-.145.004-.145.004-.29v-.086l.003-.118v-.086c0-.146-.016-.146-.016-.29 0-.146.013-.146.013-.291s-.01-.145-.01-.29v-.29c0-.145.016-.145.016-.29 0-.037-.001-.064-.003-.086l-.011-.118-.003-.087-.001-.144V15.377l-.001-.059v-.145c0-.036 0-.063.002-.086l.01-.117.003-.087-.002-.29c0-.036 0-.063-.002-.086l-.008-.118-.002-.086c0-.145.013-.145.013-.29s-.004-.145-.004-.29-.004-.145-.004-.29-.005-.145-.005-.29.01-.145.01-.29l-.002-.086-.006-.118-.002-.086c0-.145.017-.145.017-.29a.972.972 0 0 0-.003-.086l-.015-.118-.003-.086c0-.145.016-.145.016-.29s-.005-.145-.005-.29v-.087l-.003-.117V10.968l-.002-.146v-.086l-.001-.118v-.376c0-.145.01-.145.01-.29s-.005-.145-.005-.29-.007-.145-.007-.29v-.085l.002-.118v-.087c0-.145.008-.145.008-.29s-.004-.145-.004-.29c0-.144.006-.144.006-.29 0-.101-.012-.201-.024-.299-.014-.1-.027-.2-.053-.296a2.295 2.295 0 0 0-.1-.284 2.299 2.299 0 0 0-.13-.27c-.05-.084-.118-.159-.179-.24a3.522 3.522 0 0 0-.369-.405c-.059-.056-.11-.125-.175-.18-.08-.067-.167-.118-.239-.179-.08-.069-.156-.133-.225-.195-.08-.073-.15-.144-.215-.206-.083-.08-.143-.16-.197-.223-.102-.116-.16-.196-.16-.247 0-.145.012-.263.045-.35.05-.13.145-.2.269-.2h.29c.146 0 .146.005.292.005l.086.001.118.007.087.001c.145 0 .145-.018.29-.018.146 0 .146.008.292.008.145 0 .145-.008.29-.008h.291ZM38.882 6.378c.101 0 .185.058.232.169a.946.946 0 0 1 .057.296c.003.145 0 .145 0 .29V7.421c0 .144-.017.144-.017.288 0 .145.018.145.018.29l-.002.288v.289c0 .144-.02.144-.02.289 0 .144.02.144.02.288 0 .145-.01.145-.01.29 0 .144.01.144.01.288s-.004.144-.004.289c0 .144-.004.144-.004.289v.086c.002.067.003.094.003.202 0 .144.007.144.007.29 0 .144-.006.144-.006.289 0 .143-.007.143-.007.288v.289c0 .143.006.143.006.288v.145l.001.144v.086l-.001.203c0 .144-.01.144-.01.288 0 .145.006.145.006.289v.144l.001.145c0 .144-.007.144-.007.288s.004.144.004.289v.374l.003.117v.086l-.001.086-.009.117-.002.086c0 .144.01.144.01.288v.086l.001.117v.086c0 .144-.004.144-.004.288v.204l.001.086c0 .143.01.143.01.288 0 .144-.007.144-.007.288v.086c-.003.068-.007.095-.007.203 0 .144.005.144.005.289 0 .144-.005.144-.005.288 0 .145-.003.145-.003.29 0 .035.002.062.004.085l.013.117.003.086v.144l.001.145v.085l-.001.203c0 .145-.012.145-.012.288 0 .145-.005.145-.005.29 0 .144-.003.144-.003.288v.086l.005.117v.086l.001.144v.144c0 .144-.004.144-.004.289s.006.145.006.289.004.144.004.288c0 .145.003.145.003.29 0 .143-.006.143-.006.287v.289c0 .102.011.195.03.28.022.098.06.183.108.259.05.079.114.145.192.2a.9.9 0 0 0 .252.114c.115.034.207.089.287.144a.614.614 0 0 1 .212.235.682.682 0 0 1 .088.31.597.597 0 0 1-.093.344c-.066.094-.17.13-.312.13-.144 0-.144.01-.289.01l-.086.002-.117.009-.086.002c-.036 0-.063-.001-.086-.003l-.117-.014-.086-.003c-.145 0-.145.02-.289.02-.145 0-.145-.006-.29-.006h-.085c-.068-.001-.095-.003-.203-.003-.036 0-.063 0-.086-.002l-.117-.006-.087-.001c-.143 0-.143.003-.288.003s-.145-.004-.289-.004l-.086.001-.117.006-.086.002c-.144 0-.144-.005-.29-.005-.144 0-.144.005-.288.005a13.585 13.585 0 0 1-.621-.015c-.114-.007-.22-.009-.311-.02a2.323 2.323 0 0 1-.307-.054c-.15-.04-.223-.107-.244-.173a1.056 1.056 0 0 1-.034-.31c0-.12.02-.216.063-.29.05-.088.128-.135.237-.155.12-.02.22-.048.305-.066l.09-.02a.743.743 0 0 0 .21-.065.651.651 0 0 0 .161-.244c.036-.08.072-.17.093-.28.018-.088.02-.187.028-.294.007-.091.029-.19.029-.294v-.088l-.002-.12v-.528c.001-.037.002-.073.002-.147l-.001-.207v-.294l.001-.087v-.087l.002-.12v-.174l-.008-.12-.002-.087c0-.146-.009-.146-.009-.293s.02-.147.02-.294-.008-.147-.008-.294-.006-.147-.006-.293v-.088l.007-.12.001-.086c0-.147.004-.147.004-.294s-.018-.147-.018-.294v-.293c0-.148.005-.148.005-.295v-.293c0-.147-.006-.147-.006-.294s.019-.147.019-.293c0-.037 0-.064-.002-.087l-.004-.12-.003-.174c-.004-.07-.011-.097-.011-.207 0-.036 0-.064.002-.087l.013-.12.002-.087c0-.146-.017-.146-.017-.293l.002-.294c0-.147.006-.147.006-.293 0-.037 0-.065.002-.088l.01-.12.001-.086v-.381l.001-.206c0-.147-.015-.147-.015-.294 0-.146-.007-.146-.007-.294 0-.146.01-.146.01-.293s.007-.147.007-.294v-.087l-.003-.12v-.174l.007-.12.001-.086c0-.147-.012-.147-.012-.294v-.147l.001-.146c0-.148-.005-.148-.005-.294 0-.147.008-.147.008-.294s.008-.147.008-.294c0-.095-.019-.183-.04-.263A.725.725 0 0 0 36 9.652a.67.67 0 0 0-.178-.191.928.928 0 0 0-.237-.11c-.078-.026-.164-.038-.257-.05a2.014 2.014 0 0 1-.28-.064 1.178 1.178 0 0 1-.262-.111.603.603 0 0 1-.205-.194.534.534 0 0 1-.103-.267.189.189 0 0 1 .034-.064l.053-.052c.062-.04.15-.078.25-.135.071-.041.149-.096.241-.146.076-.042.156-.093.245-.14.078-.042.167-.076.255-.122.079-.042.166-.078.254-.124.08-.042.158-.094.246-.14.08-.041.158-.095.245-.14.081-.04.17-.073.257-.117.082-.042.17-.077.255-.12l.273-.138c.095-.047.178-.107.265-.15l.274-.137c.096-.048.19-.087.275-.128.087-.042.169-.078.244-.114.089-.041.172-.074.245-.108.095-.044.173-.087.24-.117.14-.06.225-.095.253-.095ZM15.586 4.634c.036 0 .063.001.086.003l.118.014.087.003.145.001H16.253l.118-.007.086-.001h.146a32.377 32.377 0 0 0 .231 0l.118-.004h.173l.118.007.086.001h.086l.118-.002h.086c.146 0 .146.004.29.004l.291.001c.146 0 .146-.015.29-.015h.377l.118.001h.086c.098 0 .178.036.237.1.05.056.095.135.116.238.015.076.011.166.011.267a.41.41 0 0 1-.11.249c-.05.059-.127.11-.206.181-.062.055-.122.127-.201.187-.067.052-.153.09-.233.145-.07.05-.14.11-.22.164-.077.052-.145.11-.213.164-.073.057-.152.103-.214.164-.067.064-.115.143-.17.21-.058.073-.11.144-.154.22-.047.08-.101.153-.132.236a1.51 1.51 0 0 0-.069.264c-.015.088-.013.178-.013.27v.289l.001.086.003.117v.086c0 .145-.002.145-.002.289s-.014.144-.014.288c0 .145-.006.145-.006.29 0 .144.012.144.012.288s-.004.144-.004.29c0 .143.013.143.013.287 0 .145-.02.145-.02.289s.016.144.016.289c0 .036 0 .063-.002.086l-.007.117-.002.086c0 .144-.004.144-.004.288 0 .145.018.145.018.289s-.014.144-.014.289c0 .144.005.144.005.288l.001.086c.002.068.005.095.005.204 0 .143-.005.143-.005.288 0 .144.005.144.005.288v.29c0 .143-.003.143-.003.288 0 .143.005.143.005.288s-.02.145-.02.289.021.144.021.288-.007.144-.007.29c0 .143.005.143.005.287v.086l-.001.058v.145c0 .144-.01.144-.01.289 0 .143.006.143.006.288 0 .144-.012.144-.012.288s.02.144.02.289c0 .144-.015.144-.015.288 0 .145.012.145.012.29 0 .143.003.143.003.288v.577c0 .144-.02.144-.02.288 0 .036 0 .064.002.086l.008.117.002.086c0 .144-.005.144-.005.289l-.001.085c-.003.067-.007.095-.007.203v.086l.001.117v.086c0 .144.011.144.011.288v.086l-.002.117v.374l.002.086.005.117.001.086c0 .145.003.145.003.288 0 .098.005.194.024.29a1.636 1.636 0 0 0 .204.545c.048.081.097.167.159.247.057.074.12.15.189.223.065.067.147.121.223.188.07.063.143.125.223.187.08.062.158.12.23.177.08.065.154.127.222.184.081.069.145.143.208.202.084.076.162.134.217.193.101.11.147.195.147.247a.928.928 0 0 1-.041.337.271.271 0 0 1-.268.176h-.086l-.118.003h-.087l-.29-.002c-.146 0-.146.007-.29.007-.146 0-.146-.008-.29-.008h-.292c-.144 0-.144.003-.29.003h-.086l-.118-.007-.173-.002c-.068 0-.095-.003-.204-.003-.145 0-.145.02-.29.02h-.086l-.118-.003-.173-.001c-.068-.002-.095-.006-.204-.006h-.29c-.146 0-.146.01-.29.01a.967.967 0 0 1-.087-.003l-.118-.015-.086-.003c-.145 0-.145.014-.29.014-.037 0-.064 0-.087-.002l-.117-.008-.087-.002c-.145 0-.145.008-.29.008-.036 0-.064 0-.086-.002l-.118-.004h-.086c-.145 0-.145.014-.29.014-.146 0-.146-.01-.29-.01h-.087l-.118-.002h-.086l-.086.001-.118.007-.086.001c-.145 0-.145-.003-.29-.003-.133 0-.217-.069-.272-.192a.866.866 0 0 1-.059-.35c0-.08.021-.175.099-.27.051-.065.132-.122.218-.195a3.16 3.16 0 0 1 .234-.174c.075-.05.152-.109.242-.163.081-.048.155-.104.226-.158.076-.055.144-.117.21-.178.07-.064.147-.117.206-.185a1.96 1.96 0 0 0 .392-.732c.032-.108.052-.207.07-.298.024-.116.034-.217.034-.303 0-.143.014-.143.014-.287l-.001-.085-.006-.117-.002-.085c0-.144.004-.144.004-.287 0-.144-.007-.144-.007-.288 0-.143.005-.143.005-.287 0-.143-.013-.143-.013-.287 0-.143.011-.143.011-.287s-.002-.144-.002-.287.007-.143.007-.287-.017-.144-.017-.287a.99.99 0 0 1 .003-.085l.015-.117.003-.085.001-.202v-.086c0-.143-.011-.143-.011-.286s-.01-.143-.01-.288c0-.143.009-.143.009-.287 0-.143-.01-.143-.01-.286 0-.144.01-.144.01-.288 0-.143.101-.184 0-.286-.099-.101-.14-.008-.281-.008-.142 0-.142.003-.284.003h-.282c-.141 0-.141-.007-.283-.007-.141 0-.141.005-.283.005l-.282.001c-.142 0-.142.015-.283.015h-.284c-.035 0-.061 0-.083-.002l-.115-.01-.083-.002h-.142l-.142-.001H11.056c-.142 0-.142.01-.283.01s-.141.003-.283.003c-.141 0-.141-.02-.283-.02-.14 0-.14.014-.282.014-.142 0-.142.01-.283.01s-.141-.015-.282-.015c-.142 0-.142.003-.283.003s-.141.009-.283.009c-.141 0-.141-.01-.282-.01-.142 0-.142-.009-.283-.009s-.141.01-.283.01c-.141 0-.141-.009-.282-.009h-.283c-.141 0-.141.003-.283.003l-.084.001c-.066.002-.092.006-.198.006-.141 0-.141-.01-.283-.01-.14 0-.14.01-.282.01-.141 0-.141-.011-.282-.011h-.283c-.142 0-.142.008-.283.008s-.181-.097-.28.004c-.1.102-.001.142-.001.286s-.003.144-.003.287c0 .144-.002.144-.002.287 0 .144-.004.144-.004.288 0 .036 0 .063.002.085l.013.117.003.085c0 .143-.01.143-.01.287s-.004.144-.004.287v.201l.001.086c0 .143-.002.143-.002.287s.008.144.008.287l.001.085.006.117.001.085c0 .144-.005.144-.005.287 0 .144-.017.144-.017.287 0 .144.003.144.003.288V19.826c0 .143.003.143.003.287l-.001.287v.085l.001.201a1.541 1.541 0 0 0 .124.57c.035.087.067.179.119.266.047.08.106.158.168.238.057.074.118.15.188.223.065.068.14.129.215.196.07.062.138.131.218.194.08.062.152.126.224.183.08.065.162.117.231.174.08.068.15.136.214.195.084.076.15.146.205.205.1.11.145.187.145.239 0 .14-.014.247-.049.33-.049.12-.127.19-.25.19-.145 0-.145-.015-.291-.015H6.49l-.118.005h-.086l-.086.001-.118.003h-.173l-.119-.005h-.172l-.118.006-.087.001-.29.002h-.086l-.119-.005h-.086l-.086-.002-.118-.006H4.54c-.145 0-.145.009-.29.009-.146 0-.146-.01-.291-.01l-.086.001-.118.008-.087.002c-.036 0-.063 0-.086.002l-.118.005-.086.002c-.146 0-.146-.011-.29-.011l-.205.001h-.087c-.145 0-.145.004-.29.004-.146 0-.146-.016-.291-.016-.146 0-.146.022-.291.022s-.145-.02-.29-.02c-.146 0-.146-.002-.291-.002-.146 0-.146.01-.291.01s-.145.01-.29.01c-.146 0-.146-.002-.29-.002a.346.346 0 0 1-.235-.076.436.436 0 0 1-.113-.224 1.133 1.133 0 0 1-.017-.248.46.46 0 0 1 .075-.25.874.874 0 0 1 .182-.191c.061-.053.129-.108.212-.158.081-.052.16-.098.231-.144.083-.054.157-.106.226-.153.084-.058.156-.113.22-.161.09-.067.165-.12.217-.166.071-.077.125-.168.183-.255.057-.087.118-.172.163-.267a2.387 2.387 0 0 0 .188-.598c.019-.1.022-.204.032-.312.003-.145.002-.145.002-.29s.02-.145.02-.29c0-.037 0-.064-.002-.087l-.012-.118-.003-.086c0-.145.017-.145.017-.29s-.018-.145-.018-.29.005-.145.005-.29c0-.146-.008-.146-.008-.291s.007-.145.007-.29l.001-.086.006-.118v-.086c0-.145-.003-.145-.003-.29l-.001-.086-.005-.118v-.086c0-.037 0-.064.002-.087l.01-.118.002-.086v-.086L2.055 17l-.001-.086c0-.145-.015-.145-.015-.29 0-.036.001-.063.003-.086l.014-.118.004-.086c0-.145-.005-.145-.005-.29v-.086l-.003-.118-.001-.172c-.003-.068-.007-.095-.007-.204 0-.146.007-.146.007-.29v-.087l-.006-.117-.001-.087c0-.145.016-.145.016-.29s-.011-.145-.011-.29v-.086l.001-.118v-.086c0-.145-.014-.145-.014-.29l.001-.086.004-.118v-.086c0-.145.01-.145.01-.29v-.086l-.006-.118-.001-.086c0-.036 0-.063.002-.086l.01-.118.001-.086c0-.145-.013-.145-.013-.29s.004-.145.004-.29.008-.145.008-.29c0-.036 0-.063-.002-.086l-.01-.118-.003-.086v-.086l-.001-.118v-.086l.001-.086.007-.118.001-.087-.001-.086-.006-.117-.002-.172-.002-.118v-.376c0-.146.011-.146.011-.29 0-.146-.011-.146-.011-.29 0-.036 0-.064.002-.086l.01-.118.002-.087.001-.29v-.086l-.002-.118v-.086c0-.145-.008-.145-.008-.29 0-.097.002-.193-.01-.288-.012-.095-.023-.192-.047-.285-.024-.092-.067-.18-.103-.269a2.418 2.418 0 0 0-.126-.257c-.046-.082-.091-.167-.148-.246a2.673 2.673 0 0 0-.178-.225c-.061-.07-.123-.143-.194-.211-.067-.065-.14-.126-.215-.188C.94 6.176.86 6.117.789 6.056a8.39 8.39 0 0 1-.65-.612C.036 5.328 0 5.24 0 5.188c0-.144.018-.256.05-.343.05-.13.127-.202.25-.202.146 0 .146.009.292.009.036 0 .063 0 .086-.002l.118-.006.087-.001.087-.001.118-.004.086-.001c.145 0 .145.006.29.006l.087.001.118.004.087.001h.29c.146 0 .146.007.291.007.146 0 .146-.015.291-.015s.145-.005.291-.005h.204l.087-.001H3.5c.145 0 .145.004.29.004h.291c.146 0 .146-.002.29-.002.146 0 .146.02.292.02h.291c.145 0 .145-.01.29-.01.146 0 .146.007.292.007.144 0 .144-.004.29-.004h.086l.118.003h.087c.145 0 .145-.005.29-.005.146 0 .146.006.291.006.098 0 .169.031.228.096.05.055.083.13.104.233.016.075.031.16.031.262 0 .066-.03.151-.11.247-.05.06-.114.125-.194.195-.062.054-.144.097-.224.158-.067.052-.13.12-.211.176-.07.05-.148.099-.229.152a3.425 3.425 0 0 0-.215.16 2.526 2.526 0 0 0-.206.173 2.241 2.241 0 0 0-.18.201 1.796 1.796 0 0 0-.157.218c-.048.08-.082.162-.114.246-.031.084-.063.168-.08.258a1.518 1.518 0 0 0-.023.27c0 .148-.006.148-.006.297l.002.088.01.12.002.09-.001.087-.006.121-.001.088.002.298c0 .148.005.148.005.296v.297l-.001.089-.008.12-.002.088c0 .148.006.148.006.297v.088l.004.12.001.089.001.148v.149c0 .148-.007.148-.007.296v.386c.001.07.004.097.004.208v.088c.002.07.004.098.004.21 0 .036 0 .064-.002.087l-.01.121-.001.088c0 .148-.004.148-.004.297 0 .148.02.148.02.297 0 .148-.007.148-.007.296 0 .149.006.149.006.297 0 .149-.108.187-.005.293.097.103.137-.006.279-.006.141 0 .141.011.283.011.141 0 .141-.003.283-.003.141 0 .141.003.282.003h.084c.067-.001.093-.002.199-.002.142 0 .142-.008.283-.008s.141.018.283.018h.366c.066-.002.093-.004.2-.004.14 0 .14-.002.282-.002.141 0 .141-.014.282-.014.142 0 .142.014.283.014h.283c.141 0 .141-.015.283-.015l.084.001.115.004h.083c.142 0 .142.015.283.015.142 0 .142-.017.283-.017s.141.018.282.018c.142 0 .142-.015.283-.015.142 0 .142-.003.283-.003h.282c.142 0 .142.005.283.005s.141.006.283.006c.14 0 .14-.012.282-.012h.282c.142 0 .142.003.283.003h.084l.115-.002h.084c.141 0 .141.008.282.008.142 0 .142-.01.283-.01.14 0 .14.01.283.01.14 0 .14.005.282.005.141 0 .175.09.274-.013.1-.1.018-.134.018-.277 0-.143-.005-.143-.005-.286 0-.036 0-.063-.002-.085l-.009-.116-.002-.084v-.143c-.001-.036-.002-.071-.002-.143 0-.036 0-.062.002-.085l.005-.116.002-.17c.002-.066.006-.093.006-.2 0-.143-.01-.143-.01-.286 0-.142.012-.142.012-.285s-.01-.143-.01-.285v-.085l-.006-.116-.001-.085c0-.035 0-.062.003-.085l.013-.116.003-.085-.001-.084-.007-.116-.001-.085.001-.085.008-.115.002-.085V9.84l-.005-.116-.002-.17-.003-.116V9.27c0-.066.003-.093.003-.2 0-.143-.008-.143-.008-.286s.01-.143.01-.286c0-.142.005-.142.005-.285a.696.696 0 0 0-.008-.096l-.031-.19c-.012-.097-.02-.193-.044-.286a2.144 2.144 0 0 0-.37-.778c-.055-.076-.11-.155-.176-.229-.062-.07-.138-.13-.209-.198-.068-.064-.133-.136-.209-.198-.082-.067-.17-.118-.241-.178-.082-.07-.155-.138-.224-.2-.083-.073-.158-.138-.223-.2-.084-.08-.149-.158-.204-.22-.104-.117-.16-.2-.16-.251 0-.144.03-.257.062-.343.05-.13.127-.19.25-.19.146 0 .146-.002.291-.002l.087-.001.118-.005h.086c.145 0 .145-.005.29-.005H13.93l.118-.004.086-.001h.086l.118.005h.173l.118-.006.086-.002c.145 0 .145.022.29.022s.145-.017.29-.017h.087l.118-.004.086-.001Zm16.308 1.749c.101 0 .178.057.225.168.031.073.05.17.058.292l.001.086v.203c0 .145-.012.145-.012.29 0 .144.014.144.014.288 0 .145.005.145.005.29v.288c0 .036-.002.063-.004.086l-.014.117-.003.086c0 .144.018.144.018.289s.002.145.002.288l-.001.086-.003.117-.001.172c-.002.068-.005.095-.005.204 0 .143.011.143.011.288 0 .144-.013.144-.013.289v.288l-.002.29v.288c0 .144.012.144.012.289s-.012.145-.012.289-.003.144-.003.288v.086c.002.068.004.095.004.202 0 .145.003.145.003.29 0 .144.003.144.003.288v.29c0 .143-.014.143-.014.288l.002.288v.289c0 .144.005.144.005.288 0 .036.001.063.003.086l.01.117.002.086-.002.086-.008.117-.002.085c0 .145.003.145.003.289 0 .145.01.145.01.289s-.006.144-.006.288v.086c-.002.068-.005.095-.005.204 0 .143-.007.143-.007.288s-.003.145-.003.288c0 .145.012.145.012.29 0 .035 0 .062-.002.085l-.006.117-.001.086c0 .144.01.144.01.288v.145l.002.144v.288c0 .145-.01.145-.01.29 0 .144.005.144.005.288l-.001.086-.006.117v.086c0 .144.015.144.015.289V20.21l-.003.117v.086c0 .144-.012.144-.012.288 0 .145.016.145.016.29 0 .144-.01.144-.01.288s.006.144.006.288c0 .145-.017.145-.017.289 0 .102.025.194.045.279.022.098.06.18.108.255.05.08.106.15.185.205.072.05.152.1.247.13.116.033.22.06.302.114a.622.622 0 0 1 .202.248c.047.092.071.193.071.312 0 .148-.013.27-.069.35-.065.093-.177.129-.32.129H31.983c-.068-.002-.095-.005-.203-.005-.145 0-.145.005-.29.005h-.085c-.067-.002-.095-.003-.202-.003h-.29c-.144 0-.144.006-.288.006h-.086l-.117.002h-.086c-.144 0-.144-.008-.289-.008-.144 0-.144.015-.288.015-.145 0-.145-.012-.29-.012-.109 0-.212-.006-.31-.008a9.526 9.526 0 0 1-.31-.013c-.116-.008-.22.003-.312-.008a2.185 2.185 0 0 1-.307-.055c-.15-.04-.243-.099-.264-.164-.02-.057-.01-.165-.01-.317a.59.59 0 0 1 .055-.292.339.339 0 0 1 .238-.174c.12-.02.226-.02.31-.038a.944.944 0 0 0 .297-.096.639.639 0 0 0 .174-.234c.036-.08.067-.176.088-.284.018-.088.03-.187.04-.294a4.246 4.246 0 0 0 .007-.384l-.003-.12v-.087c0-.147-.01-.147-.01-.294 0-.036.001-.064.003-.087l.01-.12.002-.087c0-.147-.01-.147-.01-.294s.012-.147.012-.294c0-.146-.014-.146-.014-.294 0-.146.006-.146.006-.293s-.012-.147-.012-.294.013-.147.013-.294-.009-.147-.009-.294.008-.147.008-.293v-.087l.002-.12v-.088c0-.146-.012-.146-.012-.293s.008-.147.008-.293v-.088l-.003-.12v-.174l.002-.12.001-.087c0-.146-.009-.146-.009-.293s.006-.147.006-.293c0-.037 0-.065-.002-.088l-.006-.12-.001-.087c0-.146.002-.146.002-.293s.02-.147.02-.293c0-.037 0-.065-.002-.088l-.006-.12-.001-.087c0-.146.008-.146.008-.293s-.016-.147-.016-.294.005-.147.005-.293c0-.147.012-.147.012-.294s-.003-.147-.003-.293a1.17 1.17 0 0 0-.003-.088l-.012-.119-.003-.087c0-.147.016-.147.016-.294 0-.036 0-.064-.002-.087l-.01-.12-.002-.086c0-.147.017-.147.017-.294 0-.146-.014-.146-.014-.294 0-.147-.006-.147-.006-.293 0-.037.001-.064.003-.088l.012-.12.002-.086c0-.147-.003-.147-.003-.294s.009-.147.009-.293c0-.148-.02-.148-.02-.294 0-.147.016-.147.016-.294s-.008-.147-.008-.293c0-.095-.011-.183-.031-.263a.706.706 0 0 0-.29-.427.96.96 0 0 0-.237-.116 1.44 1.44 0 0 0-.256-.06c-.103-.014-.2-.016-.283-.04a1.148 1.148 0 0 1-.265-.112.645.645 0 0 1-.22-.186.541.541 0 0 1-.082-.28c.024-.067.031-.068.08-.119.061-.04.148-.083.247-.14.073-.041.153-.09.246-.141.075-.042.162-.08.252-.128l.247-.135c.08-.042.165-.083.252-.13.08-.04.167-.078.254-.123.08-.042.16-.094.246-.139.082-.041.169-.078.256-.122.08-.042.163-.089.249-.132.088-.044.176-.083.259-.124l.257-.125c.09-.044.173-.09.255-.131.09-.044.175-.09.256-.129.092-.044.18-.082.26-.12.094-.046.177-.095.255-.13.1-.048.194-.073.267-.104.148-.064.234-.11.263-.11Zm53.048 12.01c-.101 0-.202.014-.3.022-.102.008-.204.01-.302.025-.1.017-.193.06-.29.085-.097.026-.197.043-.29.077-.095.035-.183.087-.273.131-.09.044-.18.088-.267.141-.085.053-.166.11-.248.172-.083.06-.166.117-.239.183a2.424 2.424 0 0 0-.21.215c-.068.078-.12.163-.175.247-.055.085-.115.166-.157.257a1.985 1.985 0 0 0-.16.583c-.012.099-.03.2-.03.303 0 .095.024.185.034.273.01.094.016.185.039.272.023.09.052.177.088.26.037.084.072.17.121.246.05.075.108.149.17.216.063.066.142.113.213.165.072.053.15.093.231.132.08.038.157.087.245.111.083.024.173.028.265.039.085.011.174.02.266.02.102 0 .201.009.297.002.101-.007.2-.021.293-.036.1-.016.197-.041.289-.067a2.21 2.21 0 0 0 .28-.095c.094-.04.173-.101.255-.153.084-.054.16-.116.231-.183.072-.068.144-.135.203-.216.056-.08.115-.16.16-.252.041-.088.07-.184.1-.282.027-.092.043-.19.06-.293.018-.095.052-.19.06-.294.008-.096.005-.196.005-.3 0-.136-.003-.136-.005-.273-.002-.136.007-.137.007-.273 0-.034 0-.06-.002-.081l-.013-.111-.002-.08-.001-.137-.001-.136c0-.137.02-.137.02-.273s-.017-.136-.017-.273c0-.136.05-.143.005-.271-.103-.02-.207-.032-.314-.046-.105-.012-.21-.033-.319-.04-.105-.005-.212-.012-.322-.012Zm-17.738-2.392c.133-.03.137-.008.276.004.135.012.136.009.272.009.137 0 .137-.017.273-.017.137 0 .137.007.274.007.136 0 .136-.006.273-.006.034 0 .06 0 .081.002l.111.005.08.002c.138 0 .138-.009.274-.009s.136.021.273.021c.136 0 .143-.053.271-.005-.029.09-.05.178-.082.267a7.86 7.86 0 0 1-.334.786c-.04.085-.087.168-.131.252a8.332 8.332 0 0 1-.139.248c-.047.083-.092.166-.142.246-.05.081-.11.155-.162.233-.053.078-.113.152-.17.229-.055.075-.1.16-.158.235-.059.074-.122.144-.183.216a5.92 5.92 0 0 1-.191.217c-.065.07-.128.143-.196.21-.068.068-.133.138-.204.202-.07.065-.15.12-.223.182-.073.06-.15.118-.227.175a5.68 5.68 0 0 1-.232.168c-.08.055-.151.119-.232.17-.082.05-.172.085-.255.13-.084.047-.165.098-.25.14-.086.043-.174.08-.261.12a5.475 5.475 0 0 1-.264.109c-.089.035-.174.08-.265.11-.09.03-.186.043-.278.07-.09.027-.183.049-.276.073-.092.023-.179.045-.273.065-.012-.064-.03-.118-.03-.18 0-.147.008-.147.008-.294v-.088l.001-.12v-.174l.001-.06v-.443c0-.146.01-.146.01-.294 0-.147-.008-.147-.008-.294 0-.148.007-.148.007-.295s.003-.147.003-.294v-.147l-.002-.148c0-.147-.055-.154-.014-.295.093-.022.189-.056.284-.087.092-.03.186-.06.278-.098.09-.037.182-.071.271-.115.087-.043.168-.101.255-.15.085-.047.18-.08.263-.133.084-.052.167-.106.248-.161.081-.056.157-.12.235-.18l.116-.093.112-.095c.077-.065.145-.136.216-.202.074-.068.156-.125.222-.195.07-.072.131-.158.194-.231Zm44.932-2.487c-.092 0-.184.016-.274.025-.091.01-.184.011-.273.03-.09.019-.177.051-.264.08-.086.029-.168.07-.252.108a2.443 2.443 0 0 0-.245.124c-.079.046-.152.099-.228.154-.074.052-.153.1-.224.161a3.664 3.664 0 0 0-.384.393c-.061.07-.125.135-.177.208-.053.076-.084.165-.129.242-.046.08-.105.152-.142.235a2.44 2.44 0 0 0-.099.256 2.411 2.411 0 0 0-.061.269c-.017.089-.013.182-.02.274-.008.09-.026.18-.023.273.001.072-.034.083.011.14.072.026.168.047.294.066.089.014.19.024.305.034.093.008.195.027.305.032.096.005.198.004.308.007l.307.005c.098 0 .2-.007.307-.007.097 0 .196.01.295.01.097-.001.195-.011.295-.013l.295-.003c.097-.002.195.015.295.012.098-.003.195-.02.294-.023h.296c.097-.003.195-.024.294-.028.097-.005.197.011.296.007.097-.005.195-.013.294-.018.098-.005.196-.014.295-.02.098-.005.195-.026.294-.032.097-.006.196-.001.295-.007.098-.007.2-.008.299-.014-.008-.1-.024-.2-.036-.296-.012-.099-.014-.198-.03-.291-.018-.1-.05-.192-.073-.285-.023-.097-.057-.188-.087-.279-.031-.095-.047-.192-.084-.28-.039-.092-.089-.176-.135-.26a2.5 2.5 0 0 0-.152-.25 2.354 2.354 0 0 0-.177-.232 2.213 2.213 0 0 0-.211-.2c-.074-.063-.147-.128-.228-.181-.081-.052-.174-.084-.262-.126-.086-.042-.171-.089-.263-.122-.089-.03-.181-.066-.277-.089-.091-.021-.19-.02-.288-.033-.093-.014-.188-.02-.287-.027-.094-.006-.19-.03-.289-.03ZM46.006 0c.099 0 .195.005.29.006.098.001.195.007.29.009l.288.011c.098.004.195.007.29.012.097.005.194.004.289.011.098.007.193.025.287.033l.288.031c.096.012.194.01.288.022.097.014.192.035.285.05.097.015.193.028.286.045.096.018.19.039.283.06.096.021.187.056.279.08.094.025.192.032.283.06.095.028.185.064.273.096.093.033.177.084.264.121.09.038.183.068.268.11.087.045.177.084.258.132.085.05.157.118.235.173.08.057.162.108.235.17.074.064.14.136.205.205.067.072.141.137.2.214.058.077.107.163.157.246.05.084.086.175.126.264.04.088.07.18.102.273.03.092.075.18.097.276.022.094.042.19.056.289.013.095.02.192.027.292.006.096-.005.194-.005.293 0 .101.001.197-.002.288-.004.1-.008.196-.018.287a2.784 2.784 0 0 1-.042.284c-.021.094-.061.18-.094.27-.034.088-.053.183-.101.27-.044.08-.106.153-.165.235-.054.076-.096.156-.146.224-.056.075-.123.134-.178.198a1.49 1.49 0 0 1-.187.187c-.07.054-.135.116-.22.151a1.112 1.112 0 0 1-.258.064c-.08.014-.168.012-.265.012-.098 0-.19.007-.278.004a3.289 3.289 0 0 1-.277-.025c-.093-.013-.181-.04-.27-.065a1.89 1.89 0 0 1-.26-.096c-.08-.035-.171-.061-.257-.111a3.613 3.613 0 0 1-.234-.154c-.092-.065-.168-.132-.237-.193a1.394 1.394 0 0 1-.207-.224.993.993 0 0 1-.153-.266c-.032-.092-.034-.195-.045-.305a3.119 3.119 0 0 1-.013-.306c0-.1-.002-.2.015-.301.017-.097.049-.192.082-.29.03-.093.07-.185.114-.279.041-.087.083-.178.138-.267a3.53 3.53 0 0 1 .351-.487c.063-.075.138-.15.209-.225-.083-.037-.183-.065-.276-.102a8.746 8.746 0 0 0-.27-.098c-.09-.03-.18-.061-.273-.09-.09-.029-.179-.068-.272-.095-.092-.026-.186-.047-.279-.07-.093-.025-.183-.061-.276-.083-.094-.022-.192-.021-.285-.04-.095-.02-.186-.06-.278-.075a8.137 8.137 0 0 0-.284-.047c-.1-.014-.198-.003-.287-.012-.105-.009-.2-.02-.286-.02-.092 0-.185-.01-.278-.005-.092.004-.183.028-.276.036-.092.008-.185.01-.277.02-.092.012-.184.022-.276.037-.09.015-.18.044-.27.062-.092.018-.183.03-.273.052-.09.021-.183.034-.272.059-.09.025-.18.046-.268.074-.09.029-.173.072-.259.103a6.258 6.258 0 0 0-.258.103c-.087.036-.17.077-.253.116-.085.04-.175.069-.254.113-.084.045-.161.098-.238.146-.081.052-.147.119-.22.173-.077.059-.156.113-.226.18a3.006 3.006 0 0 0-.38.436 3.295 3.295 0 0 0-.163.24c-.05.082-.101.164-.146.251a3.744 3.744 0 0 0-.121.265c-.038.089-.068.182-.1.273a4.777 4.777 0 0 0-.087.278c-.026.093-.06.186-.08.28-.021.096-.023.195-.038.291-.014.097-.04.19-.05.287-.01.098-.003.196-.008.292-.005.098-.022.195-.022.292 0 .097.012.195.018.291l.012.146.017.145c.014.097.02.194.04.29.019.094.053.186.08.28.026.093.059.185.092.276.033.092.053.188.093.277.04.089.092.171.137.257.045.086.084.176.135.259.051.081.124.15.18.228.057.078.111.158.174.233.064.078.127.156.199.226.072.07.151.13.228.194.078.063.149.135.231.192.083.056.176.096.263.147.086.05.168.11.258.154.088.044.185.074.276.113.092.04.182.084.275.12.094.035.187.072.281.104.095.032.192.056.286.086l.286.09c.067.023.162.061.283.096.085.025.183.045.291.07a5.283 5.283 0 0 0 .59.098c.095.01.194.028.298.034.096.005.196-.002.3-.002.1 0 .197-.01.29-.008.102.001.199.01.292.014.101.005.198.018.29.026.102.008.2.01.29.023.104.015.2.037.285.06a1.2 1.2 0 0 1 .272.105.58.58 0 0 1 .214.198.525.525 0 0 1 .062.282.634.634 0 0 1-.041.266.709.709 0 0 1-.16.22c-.06.057-.142.095-.228.143-.073.04-.147.095-.238.128-.079.03-.165.058-.257.083-.082.021-.172.031-.266.05-.084.015-.173.03-.266.042-.085.012-.174.02-.267.03a2.449 2.449 0 0 1-.282.025c-.08.004-.175.008-.284.01h-.284c-.088.002-.182.007-.283.008-.09.001-.184-.006-.284-.005-.09 0-.186.007-.284.007-.092 0-.185.003-.284.003-.091 0-.186-.013-.284-.013-.096 0-.19.014-.287.017-.096.002-.192-.005-.288 0-.095.005-.19.025-.285.033-.095.008-.192.009-.287.02l-.143.01-.143.014c-.095.014-.19.033-.284.05-.094.017-.187.043-.28.063-.094.02-.185.047-.278.071-.093.024-.19.032-.282.059-.092.028-.177.079-.267.111-.09.032-.186.049-.274.086-.09.036-.177.078-.263.118-.087.041-.169.092-.254.138-.084.046-.17.086-.253.138-.081.05-.165.098-.244.154-.078.056-.148.124-.222.185-.075.061-.144.127-.214.194-.07.065-.142.13-.207.202-.041-.145-.001-.15-.001-.302 0-.15-.005-.15-.005-.302 0-.15.01-.15.01-.302l.002-.09.005-.122.001-.09c0-.037 0-.066-.002-.09l-.01-.122-.002-.09c0-.15.007-.15.007-.3 0-.152-.045-.157-.011-.305.081-.05.177-.09.263-.142.082-.049.16-.11.248-.16.083-.047.173-.086.262-.135.085-.045.164-.104.254-.15.086-.044.18-.08.27-.124-.074-.061-.145-.126-.215-.184-.074-.061-.15-.114-.221-.173l-.214-.181-.215-.182c-.073-.063-.15-.118-.218-.176-.075-.063-.133-.133-.2-.19-.028-.139.004-.14.004-.281 0-.141-.008-.141-.008-.282l-.002-.083-.005-.115-.002-.083v-.281c0-.14.002-.14.002-.282l.001-.083.006-.115.002-.083c0-.14-.016-.14-.016-.281v-.084l.005-.114v-.167l-.004-.114-.001-.084.001-.084.006-.114.002-.084c0-.035 0-.061-.002-.083l-.006-.114-.001-.083c0-.141.03-.142.021-.282l-.022-.001c-.016-.11-.055-.2-.088-.281a.81.81 0 0 0-.149-.249.667.667 0 0 0-.233-.169.72.72 0 0 0-.282-.06c-.056 0-.105-.003-.26.054a4.41 4.41 0 0 0-.25.1c-.07.031-.15.073-.245.117-.072.033-.154.063-.244.106-.04-.02.01-.04.01-.086 0-.099-.014-.197-.009-.294.006-.099.02-.197.03-.293.01-.098.024-.195.04-.291.017-.097.033-.194.055-.29.022-.095.042-.192.07-.285.028-.094.068-.185.102-.276.034-.092.074-.182.113-.271.038-.09.08-.178.124-.266.044-.087.078-.18.127-.265.05-.084.114-.16.168-.241.053-.081.103-.165.162-.245.057-.077.12-.152.182-.229.061-.075.124-.149.19-.223.064-.071.122-.151.19-.222.068-.069.15-.124.222-.192.071-.068.147-.133.22-.198.074-.066.15-.13.225-.193.077-.063.143-.14.221-.199.08-.06.163-.112.245-.169l.122-.082.125-.081a8.298 8.298 0 0 1 .51-.301c.086-.047.178-.083.266-.127.088-.044.173-.093.264-.135.089-.04.182-.072.273-.11.092-.037.184-.071.277-.105.091-.035.184-.069.278-.1.092-.032.182-.076.277-.104.094-.028.188-.059.283-.084.095-.026.191-.044.288-.067.087-.022.178-.036.27-.056.09-.018.178-.048.271-.063.09-.015.183-.01.277-.022.09-.012.181-.021.275-.031.09-.009.18-.025.275-.032.09-.007.182-.017.276-.023.09-.005.183-.017.277-.02.09-.004.183.01.277.009.09-.002.183-.017.277-.017Zm20.02 6.022c.092.039.183.065.273.108.09.043.18.083.269.13.087.047.172.1.257.15.086.05.167.11.251.163.084.054.174.099.255.157.081.057.15.132.23.193.078.06.155.123.232.188.076.063.156.123.231.19.074.066.15.13.222.2.072.069.149.133.22.206.069.07.125.154.193.229.067.073.144.138.21.214.062.071.107.158.165.234.056.075.12.146.173.227.05.08.092.166.138.25.046.082.103.16.145.248.04.084.07.176.106.266.036.087.066.178.099.269.03.089.068.177.096.27a7.102 7.102 0 0 1 .139.556c.02.092.046.184.063.28.016.093.015.19.03.286.013.094.02.189.031.286.011.093.03.187.037.283.009.094.024.19.03.286.006.095.012.19.016.287.003.095.004.19.006.287.002.094-.005.19-.005.287 0 .134.006.277.001.406-.126.058-.142-.005-.281-.005-.14 0-.14.005-.278.005-.14 0-.14-.008-.278-.008-.139 0-.139.008-.278.008a.885.885 0 0 1-.082-.003l-.113-.015-.082-.003c-.139 0-.139.005-.278.005-.138 0-.15.06-.28.014.005-.098.002-.206.003-.305.003-.099.005-.198.005-.298v-.298l.002-.298c0-.096 0-.192-.004-.287-.004-.096-.016-.19-.026-.284-.008-.097-.011-.193-.025-.286-.015-.096-.025-.191-.045-.284-.02-.094-.059-.183-.085-.274-.025-.093-.05-.185-.08-.275a4.06 4.06 0 0 0-.105-.265c-.037-.089-.082-.173-.125-.257-.041-.083-.088-.162-.135-.245-.044-.08-.085-.164-.137-.243a3.153 3.153 0 0 0-.16-.228 3.162 3.162 0 0 0-.184-.21c-.063-.065-.139-.117-.212-.18-.067-.059-.13-.129-.207-.186-.079-.056-.161-.106-.239-.16a4.447 4.447 0 0 0-.489-.305c-.087-.048-.178-.077-.264-.113-.093-.037-.178-.085-.267-.107a1.232 1.232 0 0 0-.285-.04c-.09 0-.193-.003-.305-.005-.099-.001-.205.017-.309.022-.017-.005 0-.028 0-.046a1.061 1.061 0 0 1 .155-.536c.047-.076.103-.151.17-.223.06-.066.135-.122.212-.184.068-.056.138-.118.22-.172.093-.062.184-.116.266-.173a3.562 3.562 0 0 0 .493-.389Zm-6.105.872a2.076 2.076 0 0 1 .537 1.026c.017.096.03.193.03.292 0 .15-.01.15-.01.3v.09l-.003.122v.389c0 .15.015.15.015.3 0 .038 0 .066-.002.09l-.01.121-.003.09c0 .15.006.15.006.3v.089l-.003.122v.388c0 .151.012.151.012.3 0 .151-.018.151-.018.3v.09l-.003.122v.389c0 .15.069.162.018.303a2.268 2.268 0 0 1-.285-.114 2.233 2.233 0 0 1-.493-.334 2.478 2.478 0 0 1-.21-.213c-.07-.078-.125-.165-.183-.25-.06-.084-.12-.166-.17-.257-.048-.09-.086-.187-.125-.284a3.182 3.182 0 0 1-.165-.596c-.017-.1-.044-.201-.051-.306-.008-.101-.017-.205-.017-.311 0-.098.01-.194.016-.288.007-.097.025-.192.04-.286.014-.095.02-.192.042-.285.023-.094.068-.18.099-.27.03-.091.066-.179.105-.267.04-.087.075-.176.122-.26.046-.083.093-.167.147-.247.053-.078.103-.16.163-.236.06-.073.134-.135.2-.205.065-.069.128-.148.2-.214Zm-36.51.374a1.818 1.818 0 0 1 .527.073c.085.026.165.067.245.108.077.04.158.082.23.136.07.053.131.12.195.185s.12.135.172.206c.053.073.108.145.148.224.04.08.063.168.09.254.026.085.043.172.056.263a1.836 1.836 0 0 1-.053.803c-.027.088-.063.17-.104.25-.04.08-.083.16-.136.235a1.998 1.998 0 0 1-.371.39 1.753 1.753 0 0 1-.471.254c-.084.028-.173.033-.263.047-.086.013-.174.027-.266.027a1.523 1.523 0 0 1-.53-.085c-.085-.027-.172-.053-.252-.097a1.621 1.621 0 0 1-.231-.141c-.07-.054-.127-.127-.193-.193-.065-.067-.136-.125-.19-.196-.055-.074-.095-.157-.137-.236-.042-.081-.069-.168-.096-.255a1.629 1.629 0 0 1-.065-.264c-.013-.088-.037-.178-.037-.271 0-.093.016-.184.029-.271.013-.091.041-.177.069-.262.028-.087.056-.172.098-.252a1.763 1.763 0 0 1 .322-.433 1.684 1.684 0 0 1 .435-.317c.08-.04.165-.066.251-.093.085-.027.169-.062.259-.075.087-.012.177-.014.268-.014Z" fill="#fff"/></svg>