<svg width="44" height="19" viewBox="0 0 44 19" fill="none" xmlns="http://www.w3.org/2000/svg" id="vector">
<g clip-path="url('#clip0_2_203')">
<path fill-rule="evenodd" clip-rule="evenodd" d="M4.63925 13.5956L12.0234 17.8859C10.8401 18.597 9.46737 19 8 19C6.79297 19 5.65694 18.7393 4.63925 18.2415V13.5956ZM4.04733 9.39976V17.9331C1.82261 16.7005 0.284244 14.4012 0.0475711 11.7227L4.04733 9.39976ZM16 10.9403V11.0114C16 13.7136 14.651 16.1077 12.5919 17.5299L8.59215 15.2306L16 10.9403ZM11.9529 4.06667C14.1776 5.29926 15.716 7.59852 15.9527 10.277L11.9529 12.6V4.06667ZM3.40808 4.46963L7.40785 6.76889L0 11.0356V11.0119C0 8.28593 1.34903 5.89185 3.40808 4.46963ZM8.00047 3C9.2075 3 10.3435 3.26074 11.3612 3.75852V8.38074L3.97704 4.09037C5.1604 3.40296 6.5331 3 8.00047 3Z" fill="white"></path>
</g>
<path d="M25.6 6.324H24.22V12H23.128V6.324H22.276V5.424H23.128V4.956C23.128 4.22 23.316 3.684 23.692 3.348C24.076 3.004 24.688 2.832 25.528 2.832V3.744C25.048 3.744 24.708 3.84 24.508 4.032C24.316 4.216 24.22 4.524 24.22 4.956V5.424H25.6V6.324ZM30.9532 0.696L27.6652 14.04H26.5852L29.8612 0.696H30.9532ZM32.1123 4.32V3.324H34.3683V12H33.2643V4.32H32.1123ZM41.08 5.388C40.904 4.5 40.356 4.056 39.436 4.056C38.724 4.056 38.192 4.332 37.84 4.884C37.488 5.428 37.316 6.328 37.324 7.584C37.508 7.168 37.812 6.844 38.236 6.612C38.668 6.372 39.148 6.252 39.676 6.252C40.5 6.252 41.156 6.508 41.644 7.02C42.14 7.532 42.388 8.24 42.388 9.144C42.388 9.688 42.28 10.176 42.064 10.608C41.856 11.04 41.536 11.384 41.104 11.64C40.68 11.896 40.164 12.024 39.556 12.024C38.732 12.024 38.088 11.84 37.624 11.472C37.16 11.104 36.836 10.596 36.652 9.948C36.468 9.3 36.376 8.5 36.376 7.548C36.376 4.612 37.4 3.144 39.448 3.144C40.232 3.144 40.848 3.356 41.296 3.78C41.744 4.204 42.008 4.74 42.088 5.388H41.08ZM39.448 7.176C39.104 7.176 38.78 7.248 38.476 7.392C38.172 7.528 37.924 7.74 37.732 8.028C37.548 8.308 37.456 8.652 37.456 9.06C37.456 9.668 37.632 10.164 37.984 10.548C38.336 10.924 38.84 11.112 39.496 11.112C40.056 11.112 40.5 10.94 40.828 10.596C41.164 10.244 41.332 9.772 41.332 9.18C41.332 8.556 41.172 8.068 40.852 7.716C40.532 7.356 40.064 7.176 39.448 7.176Z" fill="white"></path>
<defs>
<clipPath id="clip0_2_203">
<rect width="16" height="16" fill="white" transform="translate(0 3)"></rect>
</clipPath>
</defs>
</svg>
