<svg width="44" height="19" fill="none" xmlns="http://www.w3.org/2000/svg" id="vector"><g clip-path="url('#clip0_2_203')"><path fill-rule="evenodd" clip-rule="evenodd" d="m4.64 13.596 7.383 4.29A7.774 7.774 0 0 1 8 19a7.6 7.6 0 0 1-3.36-.759v-4.645ZM4.046 9.4v8.533c-2.224-1.232-3.763-3.532-4-6.21l4-2.323ZM16 10.94v.071a7.91 7.91 0 0 1-3.408 6.519l-4-2.3L16 10.94Zm-4.047-6.873c2.225 1.232 3.763 3.532 4 6.21l-4 2.323V4.067Zm-8.545.403 4 2.299L0 11.036v-.024A7.922 7.922 0 0 1 3.408 4.47ZM8 3c1.207 0 2.344.26 3.361.759V8.38L3.977 4.09A7.987 7.987 0 0 1 8 3Z" fill="#fff"/></g><path d="M25.6 6.324h-1.38V12h-1.092V6.324h-.852v-.9h.852v-.468c0-.736.188-1.272.564-1.608.384-.344.996-.516 1.836-.516v.912c-.48 0-.82.096-1.02.288-.192.184-.288.492-.288.924v.468h1.38v.9ZM30.953.696 27.665 14.04h-1.08L29.861.696h1.092Zm1.16 3.624v-.996h2.255V12h-1.104V4.32h-1.152Zm8.967 1.068c-.176-.888-.724-1.332-1.644-1.332-.712 0-1.244.276-1.596.828-.352.544-.524 1.444-.516 2.7.184-.416.488-.74.912-.972.432-.24.912-.36 1.44-.36.824 0 1.48.256 1.968.768.496.512.744 1.22.744 2.124 0 .544-.108 1.032-.324 1.464a2.386 2.386 0 0 1-.96 1.032c-.424.256-.94.384-1.548.384-.824 0-1.468-.184-1.932-.552-.464-.368-.788-.876-.972-1.524-.184-.648-.276-1.448-.276-2.4 0-2.936 1.024-4.404 3.072-4.404.784 0 1.4.212 1.848.636.448.424.712.96.792 1.608H41.08Zm-1.632 1.788c-.344 0-.668.072-.972.216a1.73 1.73 0 0 0-.744.636c-.184.28-.276.624-.276 1.032 0 .608.176 1.104.528 1.488.352.376.856.564 1.512.564.56 0 1.004-.172 1.332-.516.336-.352.504-.824.504-1.416 0-.624-.16-1.112-.48-1.464-.32-.36-.788-.54-1.404-.54Z" fill="#fff"/><defs><clipPath id="clip0_2_203"><path fill="#fff" transform="translate(0 3)" d="M0 0h16v16H0z"/></clipPath></defs></svg>