<svg width="40" height="19" viewBox="0 0 40 19" fill="none" xmlns="http://www.w3.org/2000/svg" id="vector">
<g clip-path="url('#clip0_2_34')">
<path fill-rule="evenodd" clip-rule="evenodd" d="M4.63925 13.5956L12.0234 17.8859C10.8401 18.597 9.46737 19 8 19C6.79297 19 5.65694 18.7393 4.63925 18.2415V13.5956ZM4.04733 9.39976V17.9331C1.82261 16.7005 0.284244 14.4012 0.0475711 11.7227L4.04733 9.39976ZM16 10.9403V11.0114C16 13.7136 14.651 16.1077 12.5919 17.5299L8.59215 15.2306L16 10.9403ZM11.9529 4.06667C14.1776 5.29926 15.716 7.59852 15.9527 10.277L11.9529 12.6V4.06667ZM3.40808 4.46963L7.40785 6.76889L0 11.0356V11.0119C0 8.28593 1.34903 5.89185 3.40808 4.46963ZM8.00047 3C9.2075 3 10.3435 3.26074 11.3612 3.75852V8.38074L3.97704 4.09037C5.1604 3.40296 6.5331 3 8.00047 3Z" fill="white"></path>
</g>
<path d="M25.6 6.324H24.22V12H23.128V6.324H22.276V5.424H23.128V4.956C23.128 4.22 23.316 3.684 23.692 3.348C24.076 3.004 24.688 2.832 25.528 2.832V3.744C25.048 3.744 24.708 3.84 24.508 4.032C24.316 4.216 24.22 4.524 24.22 4.956V5.424H25.6V6.324ZM30.9532 0.696L27.6652 14.04H26.5852L29.8612 0.696H30.9532ZM32.1123 4.32V3.324H34.3683V12H33.2643V4.32H32.1123ZM35.956 4.32V3.324H38.212V12H37.108V4.32H35.956Z" fill="white"></path>
<defs>
<clipPath id="clip0_2_34">
<rect width="16" height="16" fill="white" transform="translate(0 3)"></rect>
</clipPath>
</defs>
</svg>
