<svg width="58" height="16" fill="none" xmlns="http://www.w3.org/2000/svg" id="vector"><g clip-path="url('#clip0_2_28')"><path fill-rule="evenodd" clip-rule="evenodd" d="M28.9 0C30.611 0 32 1.4 32 3.125v9.75C32 14.601 30.612 16 28.9 16H3.1C1.389 16 0 14.6 0 12.875v-9.75C0 1.399 1.388 0 3.1 0h25.8ZM12.71 2.911c-.679 0-1.282.116-1.81.35-.528.232-.938.567-1.23 1.004-.292.437-.438.95-.438 1.539 0 .627.143 1.128.43 1.503a2.74 2.74 0 0 0 1.033.84c.4.186.921.374 1.563.564.47.133.84.254 1.11.363.268.11.492.259.671.449.18.19.269.432.269.727 0 .36-.132.653-.396.876-.264.223-.627.335-1.089.335-.452 0-.808-.119-1.068-.356-.248-.228-.39-.535-.427-.92l-.004-.05h-2.12v.066c.02.58.185 1.086.494 1.516.32.447.757.789 1.308 1.026.552.238 1.171.357 1.86.357.725 0 1.352-.136 1.88-.406.528-.271.928-.635 1.202-1.09.273-.456.41-.95.41-1.482 0-.618-.146-1.117-.438-1.497a2.823 2.823 0 0 0-1.047-.855c-.405-.19-.928-.38-1.57-.57a11.673 11.673 0 0 1-1.095-.377 1.994 1.994 0 0 1-.65-.428.902.902 0 0 1-.262-.662c0-.38.116-.67.346-.87.231-.2.54-.299.927-.299.443 0 .798.112 1.067.335.258.214.4.482.428.805l.003.043h2.178l-.005-.06c-.077-.865-.427-1.54-1.049-2.028-.636-.499-1.463-.748-2.481-.748Zm10.684 0c-.924 0-1.772.219-2.545.655a4.874 4.874 0 0 0-1.838 1.817c-.453.775-.679 1.646-.679 2.615 0 .979.226 1.855.679 2.63a4.875 4.875 0 0 0 1.838 1.816 5.082 5.082 0 0 0 2.545.656c.924 0 1.772-.219 2.545-.656a4.823 4.823 0 0 0 1.831-1.817c.448-.774.672-1.65.672-2.629 0-.969-.224-1.84-.672-2.615a4.836 4.836 0 0 0-1.824-1.817 5.07 5.07 0 0 0-2.552-.655Zm-16.632.143h-1.98V13h1.98V3.053Zm16.632 1.653c.594 0 1.117.133 1.57.399.452.266.806.648 1.06 1.147.255.498.382 1.08.382 1.745s-.127 1.25-.382 1.753c-.254.504-.608.89-1.06 1.161-.453.271-.976.406-1.57.406-.594 0-1.12-.135-1.576-.406a2.762 2.762 0 0 1-1.068-1.161c-.254-.503-.382-1.088-.382-1.753 0-.665.128-1.247.382-1.745.255-.5.61-.881 1.068-1.147.457-.266.982-.4 1.576-.4Z" fill="#fff"/></g><path d="M39.456 1.32V.324h2.256V9h-1.104V1.32h-1.152Zm4.132 3.252c0-1.376.224-2.448.672-3.216C44.708.58 45.492.192 46.612.192c1.112 0 1.892.388 2.34 1.164.448.768.672 1.84.672 3.216 0 1.4-.224 2.488-.672 3.264C48.504 8.612 47.724 9 46.612 9c-1.12 0-1.904-.388-2.352-1.164-.448-.776-.672-1.864-.672-3.264Zm4.956 0c0-.696-.048-1.284-.144-1.764-.088-.488-.276-.88-.564-1.176-.28-.296-.688-.444-1.224-.444-.544 0-.96.148-1.248.444-.28.296-.468.688-.564 1.176-.088.48-.132 1.068-.132 1.764 0 .72.044 1.324.132 1.812.096.488.284.88.564 1.176.288.296.704.444 1.248.444.536 0 .944-.148 1.224-.444.288-.296.476-.688.564-1.176.096-.488.144-1.092.144-1.812Zm2.579 0c0-1.376.224-2.448.672-3.216C52.243.58 53.027.192 54.147.192c1.112 0 1.892.388 2.34 1.164.448.768.672 1.84.672 3.216 0 1.4-.224 2.488-.672 3.264C56.039 8.612 55.259 9 54.147 9c-1.12 0-1.904-.388-2.352-1.164-.448-.776-.672-1.864-.672-3.264Zm4.956 0c0-.696-.048-1.284-.144-1.764-.088-.488-.276-.88-.564-1.176-.28-.296-.688-.444-1.224-.444-.544 0-.96.148-1.248.444-.28.296-.468.688-.564 1.176-.088.48-.132 1.068-.132 1.764 0 .72.044 1.324.132 1.812.096.488.284.88.564 1.176.288.296.704.444 1.248.444.536 0 .944-.148 1.224-.444.288-.296.476-.688.564-1.176.096-.488.144-1.092.144-1.812Z" fill="#fff"/><defs><clipPath id="clip0_2_28"><path fill="#fff" d="M0 0h32v16H0z"/></clipPath></defs></svg>