<svg width="128" height="20" fill="none" xmlns="http://www.w3.org/2000/svg"><path fill-rule="evenodd" clip-rule="evenodd" d="M6.861 0c3.129 0 5.653 1.696 5.653 4.414 0 1.858-1.043 3.23-1.454 3.23-.383 0-2.36-1.184-2.36-1.534 0-.134.385-.754.385-1.373 0-1.13-.797-1.938-2.169-1.938-1.344 0-2.305.888-2.305 2.207 0 1.4 1.537 2.235 3.54 3.231l.472.239.472.242c2.51 1.3 4.875 2.794 4.875 5.522 0 3.472-3.075 5.76-7.163 5.76C2.799 20 0 18.035 0 14.509c0-2.262 1.428-4.011 1.756-4.011.44 0 2.334 1.292 2.334 1.642 0 .215-.66.915-.66 2.1 0 1.75 1.483 2.934 3.486 2.934 2.086 0 3.403-1.211 3.403-2.854 0-1.561-1.372-2.45-4.39-3.876-2.635-1.238-4.886-2.557-4.886-5.518C1.043 2.154 3.486 0 6.86 0Zm86.476 0c3.294 0 5.38 2.207 5.38 5.06 0 2.827-2.168 5.007-4.967 5.76a1.892 1.892 0 0 1-.522.082c-.357 0-1.208-2.127-1.208-2.477 0-.107.083-.188.22-.242 1.92-.754 3.101-1.75 3.101-3.257 0-1.157-.713-1.992-2.058-1.992-2.8 0-4.83 3.634-4.83 7.537 0 3.983 2.634 6.595 6.175 6.595 2.56 0 4.527-1.277 5.585-2.995a8.5 8.5 0 0 1-.042-.854c0-3.769 2.471-6.596 5.874-6.596 1.728 0 2.936.62 3.787 1.373l.083-.027v-.35c0-.403.274-.646.631-.646h2.113c.411 0 .659.243.659.7 0 .512-.302 4.415-.302 6.542 0 1.21.494 2.207 1.454 2.207 1.342 0 2.482-1.657 3.13-3.146l-.001-5.63c0-.403.219-.672.631-.672h2.196c.439 0 .686.242.686.7 0 1.507-.138 5.383-.138 6.406 0 1.373.467 2.342 1.592 2.342 1.51 0 2.8-1.938 3.294-3.31.055-.135.109-.216.274-.216.247 0 1.866.726 1.866 1.023a.92.92 0 0 1-.055.269c-.768 2.314-2.799 5.168-6.147 5.168-1.82 0-3.114-.767-3.75-2.182-1.026 1.193-2.505 2.182-4.483 2.182-1.976 0-3.404-.916-3.404-2.476v-.27l-.109-.026c-.687 1.48-2.223 2.772-4.611 2.772-1.882 0-3.38-.875-4.291-2.34C99.651 18.704 97.269 20 94.16 20c-5.57 0-9.357-3.741-9.357-9.475C84.803 4.71 88.26 0 93.337 0ZM54.614.565c.467 0 .686.269.686.727 0 1.777-.356 10.148-.356 12.948 0 1.237.438 2.18 1.537 2.18 1.412 0 2.6-1.834 3.183-3.148V7.644c0-.403.22-.672.63-.672h2.197c.439 0 .685.242.685.7 0 1.507-.136 5.383-.136 6.406 0 1.373.466 2.342 1.59 2.342 1.17 0 2.206-1.16 2.844-2.322a7.154 7.154 0 0 1-.07-1.016c0-3.715 2.743-6.46 6.833-6.46 3.924 0 6.477 2.745 6.477 6.245 0 3.203-2.306 6.487-6.862 6.487-2.334 0-4.174-.943-5.28-2.467-1.075 1.378-2.64 2.467-4.71 2.467-1.815 0-3.107-.764-3.745-2.172-1.074 1.229-2.585 2.172-4.46 2.172-2.278 0-3.87-1.05-3.87-2.665v-.215l-.11-.027c-.685 1.427-2.195 2.907-4.555 2.907-1.904 0-3.387-.864-4.298-2.285-1.072 1.298-2.606 2.285-4.594 2.285-2.224 0-3.595-1.158-3.595-2.746 0-.134 0-.35.027-.43l-.11-.028c-.74 1.59-2.278 3.204-4.748 3.204-1.77 0-2.982-.814-3.588-2.197-1.083 1.23-2.669 2.197-4.864 2.197-2.992 0-5.023-1.938-5.023-4.845V9.69h-.713c-.412 0-.604-.135-.604-.538V7.644c0-.296.137-.511.494-.511h.823V4.064c0-.457.248-.726.66-.726h2.085c.439 0 .658.269.658.726v3.123c.879-.027 1.921-.054 2.58-.054.247 0 .44.135.44.43v1.643c0 .377-.165.484-.467.484-.632 0-1.646-.027-2.553-.027v3.5c0 2.046.55 3.257 2.333 3.257 1.933 0 3.177-1.905 3.705-3.2V7.67c0-.483.247-.699.686-.699h2.14c.467 0 .687.27.687.674 0 1.669-.137 4.44-.137 6.245 0 1.695.41 2.53 1.646 2.53 1.921 0 3.568-3.769 3.568-7.834v-.915c0-.43.192-.7.659-.7h2.168c.466 0 .686.243.686.7 0 .477-.118 2.2-.2 3.954l-.023.553c-.03.735-.052 1.452-.052 2.061 0 1.184.494 2.181 1.51 2.181 1.133 0 2.112-1.184 2.738-2.298a8.75 8.75 0 0 1-.049-.932c0-3.526 2.278-6.569 5.956-6.569 1.701 0 3.239.808 4.089 1.454l.11-.026V1.265c0-.458.22-.7.631-.7h2.031Zm19.568 8.749c-2.058 0-3.211 1.857-3.211 3.741 0 2.046 1.207 3.608 3.073 3.608 2.004 0 3.075-1.777 3.075-3.904 0-1.911-.989-3.445-2.937-3.445Zm-25.331.242c-2.004 0-3.513 1.588-3.513 3.822 0 1.857 1.015 3.042 2.497 3.042 2.416 0 3.705-3.473 3.705-5.68-.576-.539-1.564-1.184-2.69-1.184Zm58.374 0c-2.004 0-3.513 1.588-3.513 3.85 0 1.802 1.016 3.014 2.443 3.014 2.579 0 3.76-3.634 3.76-5.68-.577-.539-1.565-1.184-2.69-1.184ZM61.475 1.21c1.015 0 1.866.565 1.866 1.722 0 1.105-.74 1.885-1.976 1.885-1.07 0-1.81-.727-1.81-1.857 0-1.023.794-1.75 1.92-1.75Zm57.935 0c1.016 0 1.866.565 1.866 1.722 0 1.105-.74 1.885-1.976 1.885-1.07 0-1.811-.727-1.811-1.857 0-1.023.796-1.75 1.921-1.75Z" fill="#fff"/></svg>