<svg width="128" height="36" fill="none" xmlns="http://www.w3.org/2000/svg"><path fill-rule="evenodd" clip-rule="evenodd" d="M52.992.022c.059.059.074.146.044.264-.03.264-.088.675-.176 1.232 3.707-.059 6.576.073 8.606.395.206.03.25.148.133.353-.324.558-.913.821-1.766.792-2.148-.089-4.532-.044-7.15.132-.441 4.987-.661 10.633-.661 16.94 0 5.34.19 9.578.572 12.716 3.267-.089 3.63-.004 5.572.32.235.028.294.146.177.35-.325.558-.898.837-1.722.837-2.648-.03-3.233.119-6.233.428-2.11.22-4.097.5-6.185 1.175-.177.059-.294.059-.353 0-.03-.058-.03-.176 0-.352.294-1.173.853-1.878 1.677-2.112 1.824-.528 3.122-.531 5.434-.602a2.23 2.23 0 0 1-.484-1.145c-.237-2.082-.353-4.972-.353-8.667 0-8.096.367-14.682 1.103-19.756-2.943.235-5.62.675-8.033 1.32-.206.06-.338.06-.397 0-.088-.059-.103-.176-.044-.352.293-1.115.838-1.775 1.633-1.98 1.47-.381 3.854-.645 7.15-.792.235-.762.647-1.26 1.235-1.496.118-.03.192-.03.221 0ZM11.475.814c2.5-.03 4.355 1.16 5.561 3.564.912 1.789 1.31 3.74 1.192 5.852-.148 2.523-.942 3.99-2.383 4.4-.177.06-.295.073-.353.044-.06-.058-.06-.19 0-.395.293-1.169.441-2.441.441-3.815 0-2.28-.383-4.223-1.147-5.831-.824-1.754-1.898-2.601-3.222-2.544-1.884.06-3.825 1.7-5.827 4.921-2.206 3.633-3.353 7.777-3.441 12.434-.06 3.779.617 6.833 2.03 9.162 1.411 2.328 3.324 3.463 5.737 3.403 1.942-.03 3.641-.872 5.098-2.529 1.452-1.652 3.225-4.23 3.263-7.597.111-5.728.558-10.301 1.34-13.722.205-.908.602-1.466 1.191-1.671.177-.06.28-.06.31 0 0 .03-.015.117-.044.264-.737 4.107-1.104 9.768-1.104 16.983v3.653c.622-3.021 1.498-5.544 2.626-7.569.267-.498.578-.747.935-.747.237 0 .505.118.8.352.594.47.891 1.291.891 2.464-.06 5.192.338 7.92 1.192 8.184.353.117.735-.199 1.147-.946.211-.384.382-.813.516-1.286-.04-.375-.066-.774-.075-1.2-.03-2.083.205-3.901.706-5.456.206-.645.588-1.026 1.148-1.144.117 0 .22.058.31.176a26.579 26.579 0 0 0-.575 5.5c0 3.167.353 4.87 1.059 5.104.412.147.905-.22 1.48-1.1.573-.88.977-1.995 1.212-3.345.008-.037.017-.07.025-.1-.221-1.366-.334-2.972-.334-4.827 0-2.61.25-5.515.75-8.712.736-4.43 1.707-6.644 2.913-6.644.382 0 .75.235 1.104.704.795.997 1.19 2.655 1.19 4.972 0 2.287-.366 4.62-1.102 6.995-.794 2.464-1.78 4.225-2.957 5.282.235 4.458.986 6.687 2.252 6.687.557 0 1.146-.419 1.764-1.254.54-.73.971-1.63 1.309-2.682-.282-1.474-.427-3.25-.427-5.348 0-2.61.25-5.515.75-8.712.736-4.43 1.706-6.644 2.913-6.644.383 0 .751.235 1.104.704.794.997 1.192 2.655 1.192 4.972 0 2.287-.368 4.62-1.104 6.995-.795 2.464-1.78 4.225-2.957 5.282.236 4.458.986 6.687 2.25 6.687.56 0 1.149-.419 1.767-1.254.618-.837 1.103-1.885 1.456-3.146.088-.264.177-.293.264-.089.148.265.177.793.089 1.584-.089.998-.383 1.893-.883 2.685-.589.996-1.354 1.496-2.294 1.496-.266 0-.53-.044-.795-.132-1.32-.372-2.288-1.524-2.911-3.44a5.822 5.822 0 0 1-.796 2.076c-.589.996-1.353 1.496-2.295 1.496-.265 0-.53-.044-.794-.132-1.372-.386-2.365-1.612-2.984-3.664-.078.951-.318 1.769-.723 2.454-.53.895-1.192 1.342-1.986 1.342a1.91 1.91 0 0 1-.662-.132c-.845-.302-1.467-.954-1.872-1.953-.325.86-.892 1.292-1.703 1.292-.206 0-.413-.043-.617-.131-1.472-.499-2.34-1.628-2.605-3.388-.176-1.203-.265-3.345-.265-6.425-.06-.409-.165-.454-.314-.131-1.522 3.256-2.417 6.82-2.687 10.691-.029.323-.172.441-.432.353-.92-.324-1.424-1.07-1.51-2.244a50.967 50.967 0 0 1-.139-2.553c-.543 1.399-1.324 2.624-2.19 3.52-1.413 1.467-3.194 2.259-5.34 2.377-2.826.146-5.283-.866-7.372-3.036C1.207 27.816.03 24.457.001 20.173c-.03-5.25 1.235-9.84 3.796-13.771C6.15 2.735 8.71.872 11.474.814Zm84.618 9.02c.117-.03.19-.03.22 0 .03.029.03.117 0 .264-.206 1.056-.426 2.552-.662 4.488 2.677-.059 5.046.079 7.107.41.146.03.176.122.087.273-.294.425-.721.623-1.279.593a69.217 69.217 0 0 0-6.047 0 92.052 92.052 0 0 0-.485 7.24c-.119 5 .367 7.5 1.456 7.5.442 0 .912-.352 1.413-1.057.42-.592.746-1.374.98-2.342.037-.28.076-.566.122-.87.323-2.111.514-3.563.574-4.356-.912-.468-1.339-1.304-1.28-2.508.03-.82.206-1.48.53-1.979.265-.41.558-.617.883-.617.705 0 1.058 1.364 1.058 4.092 1.441.09 2.737-.645 3.884-2.2.177-.264.398-.264.662 0 .441.47.662.925.662 1.365 0 .206-.044.425-.132.66a17.459 17.459 0 0 0-1.589 7.348c0 1.935.397 2.904 1.192 2.904 1.013 0 1.894-1.21 2.641-3.622-.018-.25-.032-.507-.037-.778-.03-2.083.205-3.901.706-5.456.205-.645.588-1.027 1.147-1.145.117 0 .221.06.309.177a26.62 26.62 0 0 0-.573 5.5c0 3.168.352 4.87 1.059 5.104.411.147.904-.22 1.478-1.1.348-.534.625-1.164.849-1.87a7.425 7.425 0 0 1-.209-1.782c0-.557.058-1.129.176-1.717.324-1.818.868-3.255 1.633-4.312.706-.938 1.471-1.407 2.295-1.407.382 0 .75.117 1.104.351 1 .705 1.5 1.717 1.5 3.037 0 .47-.059.953-.177 1.451-.295 1.233-.89 2.215-1.787 2.95-.897.732-1.847 1.129-2.847 1.187.177 1.672.633 2.64 1.368 2.904.206.087.442.131.707.131.853 0 1.714-.388 2.582-1.165.624-.56 1.129-1.253 1.517-2.079l-.127-.495c-.236-.94-.162-1.613.221-2.025.176-.175.323.132.441.925.764-3.96 1.823-6.57 3.177-7.832.264-.264.544-.396.838-.396.354 0 .691.176 1.016.528.176.205.146.395-.088.572-.413.351-.618.924-.618 1.715 0 1.233.455 2.876 1.368 4.929.588 1.379.882 2.538.882 3.475 0 .969-.309 1.738-.926 2.31-.618.573-1.31.859-2.075.859-1.5 0-2.707-1.013-3.618-3.036-.06.147-.177.308-.354.484-.023.018-.043.027-.063.039-.241.44-.534.833-.885 1.171-.78.747-1.699 1.122-2.759 1.122a4.377 4.377 0 0 1-1.589-.308c-.735-.293-1.368-.865-1.897-1.716a5.664 5.664 0 0 1-.188-.31 4.966 4.966 0 0 1-.518 1.256c-.53.895-1.192 1.341-1.986 1.341-.206 0-.428-.043-.662-.131-.975-.349-1.657-1.161-2.046-2.44-.49 1.95-1.368 2.923-2.632 2.923-1.148 0-2.016-.63-2.605-1.89-.471-.97-.705-2.069-.705-3.301 0-1.643.338-3.447 1.015-5.412-.707.324-1.516.484-2.428.484h-.353c-.03.56-.132 1.9-.309 4.02-.148 1.769-.221 3.154-.221 4.154 0 .766.044 1.443.133 2.032.029.148 0 .236-.089.266-.059.058-.161.058-.308 0-.75-.24-1.167-.897-1.258-1.962-.48.69-1.09 1.038-1.83 1.038-.207 0-.428-.03-.663-.088-1.206-.295-2.03-1.145-2.471-2.553-.353-1.202-.486-3.138-.398-5.807.06-2.434.309-4.929.75-7.48a31.02 31.02 0 0 0-3.265.44c-.147.029-.236 0-.265-.088-.058-.059-.058-.132 0-.22.118-.675.559-1.056 1.324-1.145.53-.057 1.324-.116 2.383-.175.353-1.73.647-2.992.883-3.785.147-.528.47-.88.971-1.056ZM74.06 6.005c.117-.03.19-.03.22 0 .06.03.073.103.044.22-1.03 5.31-1.516 11.015-1.456 17.116.029 1.76.088 3.123.176 4.092.177 2.054.515 3.183 1.016 3.388.352.147.764-.205 1.235-1.056.24-.433.445-.94.615-1.516a17.16 17.16 0 0 1-.13-2.18c0-2.053.266-4.062.794-6.029.236-.88.647-1.363 1.237-1.451.147-.03.25-.03.308 0 .03.03.03.117 0 .264-.382 1.965-.573 4.121-.573 6.468 0 1.907.16 3.3.486 4.18.264.733.662 1.1 1.19 1.1.824 0 1.398-1.481 1.722-4.444l.618-5.5c.147-.85.603-1.365 1.368-1.54.147-.03.25-.015.309.044.03.03.03.118 0 .264-.324 2.375-.485 4.531-.485 6.468 0 3.022.41 4.531 1.236 4.531.323 0 .669-.388 1.037-1.165a8.5 8.5 0 0 0 .596-1.84 35.699 35.699 0 0 0-.133-.514c-.235-.94-.162-1.613.22-2.025.177-.175.324.132.442.925.766-3.96 1.824-6.57 3.177-7.832.266-.264.545-.396.84-.396.352 0 .69.176 1.015.528.176.205.146.395-.089.572-.412.351-.618.924-.618 1.715 0 1.233.456 2.876 1.368 4.929.588 1.379.883 2.538.883 3.475 0 .969-.31 1.738-.926 2.31-.618.573-1.31.859-2.075.859-1.425 0-2.584-.915-3.478-2.739-.268 1.618-.976 2.43-2.127 2.43-1.207 0-2.074-.835-2.604-2.508-.382 1.263-.986 2.128-1.81 2.597a2.243 2.243 0 0 1-1.147.307c-.648 0-1.177-.249-1.589-.747a3.904 3.904 0 0 1-.517-.88c-.404 1.085-1.027 1.627-1.866 1.627-.206 0-.412-.028-.618-.087-1.412-.47-2.31-1.79-2.692-3.96-.413 2.61-1.457 3.916-3.134 3.916-1.206 0-2.133-.53-2.78-1.59a4.795 4.795 0 0 1-.162-.29c-.039.088-.08.172-.124.252-.398.704-.935 1.056-1.612 1.056-1.736 0-2.78-1.159-3.133-3.477-.176-1.2-.265-3.344-.265-6.424-.06-.41-.162-.454-.308-.132-1.472 3.228-2.384 6.69-2.737 10.385-.03.323-.162.454-.397.395-.912-.175-1.398-.645-1.456-1.407-.148-1.496-.177-3.388-.089-5.677.089-2.464.265-4.384.53-5.763.147-.733.53-1.188 1.147-1.365.147-.029.25-.029.31 0 .058.03.072.118.043.265-.412 2.787-.544 5.955-.397 9.504.676-3.227 1.544-5.78 2.604-7.657.294-.528.603-.791.927-.791.5 0 .927.294 1.28.88.265.44.398 1.1.398 1.98-.06 5.192.337 7.906 1.19 8.14.412.117.824-.227 1.237-1.034.119-.234.217-.483.305-.737a7.853 7.853 0 0 1-.13-1.457c0-.795.09-1.648.265-2.56.382-1.943.985-3.458 1.81-4.547.823-1.089 1.662-1.634 2.516-1.634.794 0 1.485.5 2.073 1.497.354-5.28.987-9.577 1.899-12.893.117-.41.44-.688.97-.835Zm-4.426 13.508c-.505-.117-1.093.44-1.761 1.672-.67 1.232-1.122 2.684-1.36 4.356-.089.645-.133 1.247-.133 1.803 0 1.116.156 1.989.468 2.618.312.632.661.962 1.047.99.654.06 1.322-.674 2.006-2.2.742-1.7 1.084-3.635 1.025-5.808-.03-.996-.194-1.832-.49-2.508-.239-.556-.506-.864-.802-.924Zm54.66 1.1c-.648 1.027-1.397 3.314-2.251 6.864.47.997 1.074 1.79 1.81 2.375.647.528 1.25.792 1.809.792.618 0 .927-.336.927-1.01 0-.588-.397-1.805-1.192-3.654-.794-1.847-1.191-3.314-1.191-4.4 0-.351.029-.673.088-.967Zm-35.273 0c-.648 1.027-1.398 3.314-2.25 6.864.47.997 1.072 1.79 1.809 2.375.647.528 1.25.792 1.809.792.618 0 .926-.336.926-1.01 0-.588-.397-1.805-1.19-3.654-.796-1.847-1.193-3.314-1.193-4.4 0-.351.03-.673.089-.967Zm28.477-.793c-.471-.116-1.001.368-1.589 1.452-.647 1.174-1.045 2.538-1.192 4.093-.058.675-.073 1.173-.043 1.496 1.058-.235 1.912-.982 2.559-2.244a7.1 7.1 0 0 0 .795-3.3c0-.909-.177-1.409-.53-1.497ZM37.153 7.898c-.325-.176-.707.865-1.148 3.123-.441 2.26-.736 4.724-.883 7.393a89.71 89.71 0 0 0-.088 4.4c1.706-2.698 2.56-6.584 2.56-11.66 0-2.025-.148-3.109-.441-3.256Zm6.796 0c-.325-.176-.707.865-1.148 3.123-.441 2.26-.736 4.724-.882 7.393a89.71 89.71 0 0 0-.089 4.4c1.707-2.698 2.56-6.584 2.56-11.66 0-2.025-.148-3.109-.441-3.256Zm-13.814 9.02c.559-.088.883.22.971.924.059.41-.03.763-.264 1.056-.236.294-.515.47-.84.528-.323.058-.588-.007-.793-.197-.207-.191-.28-.478-.221-.86.117-.879.5-1.363 1.147-1.451Zm80.731 0c.557-.088.881.22.97.924.058.41-.03.763-.265 1.056-.235.294-.515.47-.838.528-.324.058-.589-.007-.795-.197-.206-.191-.28-.478-.22-.86.116-.879.5-1.363 1.148-1.451Z" fill="#fff"/></svg>