<svg width="63" height="16" viewBox="0 0 63 16" fill="none" xmlns="http://www.w3.org/2000/svg" id="vector">
<g clip-path="url('#clip0_2_40')">
<path fill-rule="evenodd" clip-rule="evenodd" d="M5 6.44452C4.03804 6.44452 3.25973 5.70036 3.25973 4.78061C3.25973 3.86295 4.03804 3.11879 5 3.11879C5.95977 3.11879 6.73809 3.86295 6.73809 4.78061C6.73809 5.70036 5.95977 6.44452 5 6.44452ZM5 0C2.23874 0 0 2.14051 0 4.78061C0 6.70791 2.6585 12.471 4.09926 15.4497C4.45343 16.1834 5.54438 16.1834 5.90074 15.4497C7.33931 12.471 10 6.70791 10 4.78061C10 2.14051 7.76126 0 5 0Z" fill="white"></path>
</g>
<path d="M17.016 0.636V9H15.924V0.636H17.016ZM18.4691 5.7C18.4691 5.02 18.6051 4.428 18.8771 3.924C19.1491 3.412 19.5251 3.016 20.0051 2.736C20.4931 2.456 21.0491 2.316 21.6731 2.316C22.4811 2.316 23.1451 2.512 23.6651 2.904C24.1931 3.296 24.5411 3.84 24.7091 4.536H23.5331C23.4211 4.136 23.2011 3.82 22.8731 3.588C22.5531 3.356 22.1531 3.24 21.6731 3.24C21.0491 3.24 20.5451 3.456 20.1611 3.888C19.7771 4.312 19.5851 4.916 19.5851 5.7C19.5851 6.492 19.7771 7.104 20.1611 7.536C20.5451 7.968 21.0491 8.184 21.6731 8.184C22.1531 8.184 22.5531 8.072 22.8731 7.848C23.1931 7.624 23.4131 7.304 23.5331 6.888H24.7091C24.5331 7.56 24.1811 8.1 23.6531 8.508C23.1251 8.908 22.4651 9.108 21.6731 9.108C21.0491 9.108 20.4931 8.968 20.0051 8.688C19.5251 8.408 19.1491 8.012 18.8771 7.5C18.6051 6.988 18.4691 6.388 18.4691 5.7ZM32.1662 5.46C32.1662 5.668 32.1542 5.888 32.1302 6.12H26.8742C26.9142 6.768 27.1342 7.276 27.5342 7.644C27.9422 8.004 28.4342 8.184 29.0102 8.184C29.4822 8.184 29.8742 8.076 30.1862 7.86C30.5062 7.636 30.7302 7.34 30.8582 6.972H32.0342C31.8582 7.604 31.5062 8.12 30.9782 8.52C30.4502 8.912 29.7942 9.108 29.0102 9.108C28.3862 9.108 27.8262 8.968 27.3302 8.688C26.8422 8.408 26.4582 8.012 26.1782 7.5C25.8982 6.98 25.7582 6.38 25.7582 5.7C25.7582 5.02 25.8942 4.424 26.1662 3.912C26.4382 3.4 26.8182 3.008 27.3062 2.736C27.8022 2.456 28.3702 2.316 29.0102 2.316C29.6342 2.316 30.1862 2.452 30.6662 2.724C31.1462 2.996 31.5142 3.372 31.7702 3.852C32.0342 4.324 32.1662 4.86 32.1662 5.46ZM31.0382 5.232C31.0382 4.816 30.9462 4.46 30.7622 4.164C30.5782 3.86 30.3262 3.632 30.0062 3.48C29.6942 3.32 29.3462 3.24 28.9622 3.24C28.4102 3.24 27.9382 3.416 27.5462 3.768C27.1622 4.12 26.9422 4.608 26.8862 5.232H31.0382ZM34.6996 0.12V9H33.6076V0.12H34.6996ZM36.1527 5.688C36.1527 5.016 36.2887 4.428 36.5607 3.924C36.8327 3.412 37.2047 3.016 37.6767 2.736C38.1567 2.456 38.6887 2.316 39.2727 2.316C39.8487 2.316 40.3487 2.44 40.7727 2.688C41.1967 2.936 41.5127 3.248 41.7207 3.624V2.424H42.8247V9H41.7207V7.776C41.5047 8.16 41.1807 8.48 40.7487 8.736C40.3247 8.984 39.8287 9.108 39.2607 9.108C38.6767 9.108 38.1487 8.964 37.6767 8.676C37.2047 8.388 36.8327 7.984 36.5607 7.464C36.2887 6.944 36.1527 6.352 36.1527 5.688ZM41.7207 5.7C41.7207 5.204 41.6207 4.772 41.4207 4.404C41.2207 4.036 40.9487 3.756 40.6047 3.564C40.2687 3.364 39.8967 3.264 39.4887 3.264C39.0807 3.264 38.7087 3.36 38.3727 3.552C38.0367 3.744 37.7687 4.024 37.5687 4.392C37.3687 4.76 37.2687 5.192 37.2687 5.688C37.2687 6.192 37.3687 6.632 37.5687 7.008C37.7687 7.376 38.0367 7.66 38.3727 7.86C38.7087 8.052 39.0807 8.148 39.4887 8.148C39.8967 8.148 40.2687 8.052 40.6047 7.86C40.9487 7.66 41.2207 7.376 41.4207 7.008C41.6207 6.632 41.7207 6.196 41.7207 5.7ZM47.8741 2.304C48.6741 2.304 49.3221 2.548 49.8181 3.036C50.3141 3.516 50.5621 4.212 50.5621 5.124V9H49.4821V5.28C49.4821 4.624 49.3181 4.124 48.9901 3.78C48.6621 3.428 48.2141 3.252 47.6461 3.252C47.0701 3.252 46.6101 3.432 46.2661 3.792C45.9301 4.152 45.7621 4.676 45.7621 5.364V9H44.6701V2.424H45.7621V3.36C45.9781 3.024 46.2701 2.764 46.6381 2.58C47.0141 2.396 47.4261 2.304 47.8741 2.304ZM51.9379 5.688C51.9379 5.016 52.0739 4.428 52.3459 3.924C52.6179 3.412 52.9899 3.016 53.4619 2.736C53.9419 2.456 54.4779 2.316 55.0699 2.316C55.5819 2.316 56.0579 2.436 56.4979 2.676C56.9379 2.908 57.2739 3.216 57.5059 3.6V0.12H58.6099V9H57.5059V7.764C57.2899 8.156 56.9699 8.48 56.5459 8.736C56.1219 8.984 55.6259 9.108 55.0579 9.108C54.4739 9.108 53.9419 8.964 53.4619 8.676C52.9899 8.388 52.6179 7.984 52.3459 7.464C52.0739 6.944 51.9379 6.352 51.9379 5.688ZM57.5059 5.7C57.5059 5.204 57.4059 4.772 57.2059 4.404C57.0059 4.036 56.7339 3.756 56.3899 3.564C56.0539 3.364 55.6819 3.264 55.2739 3.264C54.8659 3.264 54.4939 3.36 54.1579 3.552C53.8219 3.744 53.5539 4.024 53.3539 4.392C53.1539 4.76 53.0539 5.192 53.0539 5.688C53.0539 6.192 53.1539 6.632 53.3539 7.008C53.5539 7.376 53.8219 7.66 54.1579 7.86C54.4939 8.052 54.8659 8.148 55.2739 8.148C55.6819 8.148 56.0539 8.052 56.3899 7.86C56.7339 7.66 57.0059 7.376 57.2059 7.008C57.4059 6.632 57.5059 6.196 57.5059 5.7Z" fill="white"></path>
<defs>
<clipPath id="clip0_2_40">
<rect width="10" height="16" fill="white"></rect>
</clipPath>
</defs>
</svg>
