<svg width="57" height="16" fill="none" xmlns="http://www.w3.org/2000/svg" id="vector"><g clip-path="url('#clip0_2_215')"><path fill-rule="evenodd" clip-rule="evenodd" d="M5 6.445c-.962 0-1.74-.745-1.74-1.664 0-.918.778-1.662 1.74-1.662.96 0 1.738.744 1.738 1.662 0 .92-.778 1.664-1.738 1.664ZM5 0C2.239 0 0 2.14 0 4.78c0 1.928 2.659 7.691 4.1 10.67.353.733 1.444.733 1.8 0C7.34 12.47 10 6.708 10 4.78 10 2.14 7.761 0 5 0Z" fill="#fff"/></g><path d="M20.136.636v6.18c0 .688-.212 1.24-.636 1.656-.424.408-.984.612-1.68.612-.704 0-1.268-.208-1.692-.624-.424-.424-.636-1-.636-1.728h1.092c.008.408.112.74.312.996.208.256.516.384.924.384.408 0 .712-.12.912-.36.2-.248.3-.56.3-.936V.636h1.104Zm1.743 5.052c0-.672.136-1.26.408-1.764a2.964 2.964 0 0 1 1.116-1.188A3.11 3.11 0 0 1 25 2.316c.576 0 1.076.124 1.5.372.424.248.74.56.948.936v-1.2h1.104V9h-1.104V7.776c-.216.384-.54.704-.972.96-.424.248-.92.372-1.488.372a2.98 2.98 0 0 1-1.584-.432 3.03 3.03 0 0 1-1.116-1.212c-.272-.52-.408-1.112-.408-1.776Zm5.568.012c0-.496-.1-.928-.3-1.296a2.065 2.065 0 0 0-.816-.84 2.14 2.14 0 0 0-1.116-.3c-.408 0-.78.096-1.116.288a2.09 2.09 0 0 0-.804.84c-.2.368-.3.8-.3 1.296 0 .504.1.944.3 1.32.2.368.468.652.804.852a2.21 2.21 0 0 0 1.116.288c.408 0 .78-.096 1.116-.288.344-.2.616-.484.816-.852.2-.376.3-.812.3-1.308Zm4.042-2.064c.216-.376.536-.688.96-.936.432-.256.932-.384 1.5-.384.584 0 1.112.14 1.584.42.48.28.856.676 1.128 1.188.272.504.408 1.092.408 1.764 0 .664-.136 1.256-.408 1.776a3.002 3.002 0 0 1-2.712 1.644c-.56 0-1.056-.124-1.488-.372a2.764 2.764 0 0 1-.972-.948v4.332h-1.092V2.424h1.092v1.212Zm4.464 2.052c0-.496-.1-.928-.3-1.296a2.065 2.065 0 0 0-.816-.84 2.21 2.21 0 0 0-1.116-.288c-.4 0-.772.1-1.116.3a2.151 2.151 0 0 0-.816.852c-.2.368-.3.796-.3 1.284 0 .496.1.932.3 1.308.208.368.48.652.816.852.344.192.716.288 1.116.288.408 0 .78-.096 1.116-.288.344-.2.616-.484.816-.852.2-.376.3-.816.3-1.32Zm2.145 0c0-.672.136-1.26.408-1.764a2.964 2.964 0 0 1 1.116-1.188 3.11 3.11 0 0 1 1.596-.42c.576 0 1.076.124 1.5.372.424.248.74.56.948.936v-1.2h1.104V9h-1.104V7.776c-.216.384-.54.704-.972.96-.424.248-.92.372-1.488.372a2.98 2.98 0 0 1-1.584-.432 3.03 3.03 0 0 1-1.116-1.212c-.272-.52-.408-1.112-.408-1.776Zm5.568.012c0-.496-.1-.928-.3-1.296a2.065 2.065 0 0 0-.816-.84 2.14 2.14 0 0 0-1.116-.3c-.408 0-.78.096-1.116.288a2.09 2.09 0 0 0-.804.84c-.2.368-.3.8-.3 1.296 0 .504.1.944.3 1.32.2.368.468.652.804.852a2.21 2.21 0 0 0 1.116.288c.408 0 .78-.096 1.116-.288.344-.2.616-.484.816-.852.2-.376.3-.812.3-1.308Zm6.153-3.396c.8 0 1.448.244 1.944.732.496.48.744 1.176.744 2.088V9h-1.08V5.28c0-.656-.164-1.156-.492-1.5-.328-.352-.776-.528-1.344-.528-.576 0-1.036.18-1.38.54-.336.36-.504.884-.504 1.572V9h-1.092V2.424h1.092v.936c.216-.336.508-.596.876-.78a2.774 2.774 0 0 1 1.236-.276Z" fill="#fff"/><defs><clipPath id="clip0_2_215"><path fill="#fff" d="M0 0h10v16H0z"/></clipPath></defs></svg>