<svg width="57" height="16" viewBox="0 0 57 16" fill="none" xmlns="http://www.w3.org/2000/svg" id="vector">
<g clip-path="url('#clip0_2_215')">
<path fill-rule="evenodd" clip-rule="evenodd" d="M5 6.44452C4.03804 6.44452 3.25973 5.70036 3.25973 4.78061C3.25973 3.86295 4.03804 3.11879 5 3.11879C5.95977 3.11879 6.73809 3.86295 6.73809 4.78061C6.73809 5.70036 5.95977 6.44452 5 6.44452ZM5 0C2.23874 0 0 2.14051 0 4.78061C0 6.70791 2.6585 12.471 4.09926 15.4497C4.45343 16.1834 5.54438 16.1834 5.90074 15.4497C7.33931 12.471 10 6.70791 10 4.78061C10 2.14051 7.76126 0 5 0Z" fill="white"></path>
</g>
<path d="M20.136 0.636V6.816C20.136 7.504 19.924 8.056 19.5 8.472C19.076 8.88 18.516 9.084 17.82 9.084C17.116 9.084 16.552 8.876 16.128 8.46C15.704 8.036 15.492 7.46 15.492 6.732H16.584C16.592 7.14 16.696 7.472 16.896 7.728C17.104 7.984 17.412 8.112 17.82 8.112C18.228 8.112 18.532 7.992 18.732 7.752C18.932 7.504 19.032 7.192 19.032 6.816V0.636H20.136ZM21.8793 5.688C21.8793 5.016 22.0153 4.428 22.2873 3.924C22.5593 3.412 22.9313 3.016 23.4033 2.736C23.8833 2.456 24.4153 2.316 24.9993 2.316C25.5753 2.316 26.0753 2.44 26.4993 2.688C26.9233 2.936 27.2393 3.248 27.4473 3.624V2.424H28.5513V9H27.4473V7.776C27.2313 8.16 26.9073 8.48 26.4753 8.736C26.0513 8.984 25.5553 9.108 24.9873 9.108C24.4033 9.108 23.8753 8.964 23.4033 8.676C22.9313 8.388 22.5593 7.984 22.2873 7.464C22.0153 6.944 21.8793 6.352 21.8793 5.688ZM27.4473 5.7C27.4473 5.204 27.3473 4.772 27.1473 4.404C26.9473 4.036 26.6753 3.756 26.3313 3.564C25.9953 3.364 25.6233 3.264 25.2153 3.264C24.8073 3.264 24.4353 3.36 24.0993 3.552C23.7633 3.744 23.4953 4.024 23.2953 4.392C23.0953 4.76 22.9953 5.192 22.9953 5.688C22.9953 6.192 23.0953 6.632 23.2953 7.008C23.4953 7.376 23.7633 7.66 24.0993 7.86C24.4353 8.052 24.8073 8.148 25.2153 8.148C25.6233 8.148 25.9953 8.052 26.3313 7.86C26.6753 7.66 26.9473 7.376 27.1473 7.008C27.3473 6.632 27.4473 6.196 27.4473 5.7ZM31.4887 3.636C31.7047 3.26 32.0247 2.948 32.4487 2.7C32.8807 2.444 33.3807 2.316 33.9487 2.316C34.5327 2.316 35.0607 2.456 35.5327 2.736C36.0127 3.016 36.3887 3.412 36.6607 3.924C36.9327 4.428 37.0687 5.016 37.0687 5.688C37.0687 6.352 36.9327 6.944 36.6607 7.464C36.3887 7.984 36.0127 8.388 35.5327 8.676C35.0607 8.964 34.5327 9.108 33.9487 9.108C33.3887 9.108 32.8927 8.984 32.4607 8.736C32.0367 8.48 31.7127 8.164 31.4887 7.788V12.12H30.3967V2.424H31.4887V3.636ZM35.9527 5.688C35.9527 5.192 35.8527 4.76 35.6527 4.392C35.4527 4.024 35.1807 3.744 34.8367 3.552C34.5007 3.36 34.1287 3.264 33.7207 3.264C33.3207 3.264 32.9487 3.364 32.6047 3.564C32.2687 3.756 31.9967 4.04 31.7887 4.416C31.5887 4.784 31.4887 5.212 31.4887 5.7C31.4887 6.196 31.5887 6.632 31.7887 7.008C31.9967 7.376 32.2687 7.66 32.6047 7.86C32.9487 8.052 33.3207 8.148 33.7207 8.148C34.1287 8.148 34.5007 8.052 34.8367 7.86C35.1807 7.66 35.4527 7.376 35.6527 7.008C35.8527 6.632 35.9527 6.192 35.9527 5.688ZM38.098 5.688C38.098 5.016 38.234 4.428 38.506 3.924C38.778 3.412 39.15 3.016 39.622 2.736C40.102 2.456 40.634 2.316 41.218 2.316C41.794 2.316 42.294 2.44 42.718 2.688C43.142 2.936 43.458 3.248 43.666 3.624V2.424H44.77V9H43.666V7.776C43.45 8.16 43.126 8.48 42.694 8.736C42.27 8.984 41.774 9.108 41.206 9.108C40.622 9.108 40.094 8.964 39.622 8.676C39.15 8.388 38.778 7.984 38.506 7.464C38.234 6.944 38.098 6.352 38.098 5.688ZM43.666 5.7C43.666 5.204 43.566 4.772 43.366 4.404C43.166 4.036 42.894 3.756 42.55 3.564C42.214 3.364 41.842 3.264 41.434 3.264C41.026 3.264 40.654 3.36 40.318 3.552C39.982 3.744 39.714 4.024 39.514 4.392C39.314 4.76 39.214 5.192 39.214 5.688C39.214 6.192 39.314 6.632 39.514 7.008C39.714 7.376 39.982 7.66 40.318 7.86C40.654 8.052 41.026 8.148 41.434 8.148C41.842 8.148 42.214 8.052 42.55 7.86C42.894 7.66 43.166 7.376 43.366 7.008C43.566 6.632 43.666 6.196 43.666 5.7ZM49.8194 2.304C50.6194 2.304 51.2674 2.548 51.7634 3.036C52.2594 3.516 52.5074 4.212 52.5074 5.124V9H51.4274V5.28C51.4274 4.624 51.2634 4.124 50.9354 3.78C50.6074 3.428 50.1594 3.252 49.5914 3.252C49.0154 3.252 48.5554 3.432 48.2114 3.792C47.8754 4.152 47.7074 4.676 47.7074 5.364V9H46.6154V2.424H47.7074V3.36C47.9234 3.024 48.2154 2.764 48.5834 2.58C48.9594 2.396 49.3714 2.304 49.8194 2.304Z" fill="white"></path>
<defs>
<clipPath id="clip0_2_215">
<rect width="10" height="16" fill="white"></rect>
</clipPath>
</defs>
</svg>
