<svg width="128" height="32" fill="none" xmlns="http://www.w3.org/2000/svg"><path fill-rule="evenodd" clip-rule="evenodd" d="M9.596 16.817v3.262H4.125c-.134 0-.224.113-.224.247v2.227c0 .09.09.202.224.202h3.901c1.053 0 1.771.72 1.771 1.777v5.69C9.797 31.28 9.08 32 8.026 32H0v-3.285h5.672c.157 0 .246-.089.246-.202V26.31c0-.113-.089-.202-.246-.202h-3.9C.717 26.107 0 25.387 0 24.33v-5.736c0-1.057.718-1.777 1.771-1.777h7.825Zm13.453 0v3.284h-3.431V32h-3.901V20.1h-3.43v-3.284h10.761Zm12.308 0c1.054 0 1.772.72 1.772 1.777v11.628c0 1.058-.718 1.778-1.772 1.778h-7.78c-1.054 0-1.771-.72-1.771-1.778V18.594c0-1.057.717-1.777 1.771-1.777h7.78Zm15.134 0c.965 0 1.772.788 1.772 1.71v3.914h-3.901v-2.115c0-.135-.113-.247-.202-.247h-2.847a.249.249 0 0 0-.247.247v8.165c0 .135.112.224.247.224h2.847c.09 0 .202-.09.202-.224v-2.16h3.901v3.936c0 .99-.807 1.733-1.772 1.733h-7.6a1.702 1.702 0 0 1-1.727-1.733v-11.74c0-.922.763-1.71 1.727-1.71h7.6ZM55.119 0c.286 0 .567.029.844.079V.075l.06.013.09.02a4.511 4.511 0 0 1 .715.215 4.677 4.677 0 0 1 .487.22c.05.026.096.055.146.084.07.04.14.081.208.125l.163.11c.06.043.12.088.178.135a3.867 3.867 0 0 1 .344.295c.036.034.074.064.11.1a4.735 4.735 0 0 1 1.384 3.357h.004l.012 18.389 3.924-6.32h4.349l-4.373 6.59 4.552 8.591h-4.26l-2.959-5.802-1.233 2.002v3.8h-3.901V4.75a.853.853 0 0 0-.249-.6.835.835 0 0 0-.595-.247.833.833 0 0 0-.597.247l-.71.716-2.751 2.757-2.749-2.757-.713-.716a.835.835 0 0 0-.597-.247c-.129 0-.38.03-.595.247a.848.848 0 0 0 0 1.196l.713.716 2.748 2.757 1.193 1.197 1.192-1.197L54.667 6.4v5.516l-3.606 3.618-7.406-7.429a4.766 4.766 0 0 1 0-6.713A4.691 4.691 0 0 1 47.002 0c1.264 0 2.454.494 3.349 1.392l.71.713.71-.713A4.691 4.691 0 0 1 55.119 0Zm19.676 16.817v5.803h3.7v-5.803h3.901V32h-3.9v-6.028h-3.7V32h-3.902V16.817h3.901Zm21.323 0c1.053 0 1.77.72 1.77 1.777v11.628c0 1.058-.717 1.778-1.77 1.778h-7.78c-1.054 0-1.771-.72-1.771-1.778V18.594c0-1.057.717-1.777 1.771-1.777h7.78Zm9.821 0v11.898h4.82V32h-8.699V16.817h3.879Zm12.084 0 3.049 7.085 2.803-7.085H128V32h-3.677v-8.75l-2.556 6.028h-1.525l-2.577-5.87v8.591h-3.588V16.818h3.946Zm-85.042 3.284h-3.072c-.09 0-.202.113-.202.248v8.164c0 .113.112.202.202.202h3.072c.134 0 .246-.089.246-.202V20.35a.25.25 0 0 0-.246-.248Zm60.76 0h-3.072c-.09 0-.2.113-.2.248v8.164c0 .113.11.202.2.202h3.072c.134 0 .247-.089.247-.202V20.35a.25.25 0 0 0-.247-.248Z" fill="#fff"/></svg>