<svg width="24" height="24" fill="none" xmlns="http://www.w3.org/2000/svg" id="vector"><path d="M12 5.768A6.239 6.239 0 0 0 5.768 12 6.237 6.237 0 0 0 12 18.23 6.236 6.236 0 0 0 18.23 12 6.235 6.235 0 0 0 12 5.768Zm0 10.086A3.857 3.857 0 0 1 8.146 12 3.857 3.857 0 0 1 12 8.146 3.857 3.857 0 0 1 15.854 12 3.857 3.857 0 0 1 12 15.854ZM17.094 0H6.906A6.915 6.915 0 0 0 0 6.906v10.188A6.915 6.915 0 0 0 6.906 24h10.188A6.915 6.915 0 0 0 24 17.094V6.906A6.914 6.914 0 0 0 17.094 0Zm4.53 17.094a4.535 4.535 0 0 1-4.53 4.528H6.906a4.533 4.533 0 0 1-4.528-4.528V6.906a4.533 4.533 0 0 1 4.528-4.528h10.188a4.533 4.533 0 0 1 4.528 4.528v10.188h.002ZM18.317 3.968c-.898 0-1.631.73-1.631 1.63 0 .898.73 1.631 1.63 1.631.899 0 1.631-.73 1.631-1.63 0-.9-.732-1.631-1.63-1.631Z" fill="silver"/></svg>