<svg width="24" height="20" fill="none" xmlns="http://www.w3.org/2000/svg" id="vector"><path d="M24 2.557a9.882 9.882 0 0 1-2.828.776A4.931 4.931 0 0 0 23.336.609a9.9 9.9 0 0 1-3.126 1.196A4.913 4.913 0 0 0 16.617.25a4.923 4.923 0 0 0-4.926 4.923c0 .387.044.762.127 1.122A13.968 13.968 0 0 1 1.67 1.15a4.919 4.919 0 0 0-.666 2.476c0 1.709.87 3.215 2.188 4.098a4.876 4.876 0 0 1-2.23-.617v.063a4.926 4.926 0 0 0 3.95 4.827 4.918 4.918 0 0 1-2.222.085 4.929 4.929 0 0 0 4.597 3.42 9.873 9.873 0 0 1-6.113 2.106A9.78 9.78 0 0 1 0 17.539a13.946 13.946 0 0 0 7.547 2.211c9.056 0 14.01-7.501 14.01-14.007 0-.213-.006-.425-.014-.636.962-.696 1.799-1.563 2.457-2.55Z" fill="silver"/></svg>